<?xml version="1.0" encoding="UTF-8"?>
<svg width="24px" height="20px" viewBox="0 0 24 20" version="1.1" xmlns="http://www.w3.org/2000/svg" xmlns:xlink="http://www.w3.org/1999/xlink">
    <title>Shape</title>
    <g id="Page-1" stroke="none" stroke-width="1" fill="none" fill-rule="evenodd">
        <g id="icon-plane" transform="translate(0.000098, 0.000266)" fill="#FFFFFF" fill-rule="nonzero">
            <path d="M24.0009018,1.13273441 L23.9999018,1.13373441 C23.9432889,1.47244409 23.6406042,2.86450965 23.3167268,4.34685918 L23.1865787,4.9423313 C22.8827498,6.33234835 22.5865792,7.68915377 22.4809018,8.22973441 C21.9849018,10.5947344 21.4879018,12.9027344 20.9919018,15.2677344 C20.2919018,18.7137344 20.3789018,21.1377344 17.7799018,19.2977344 C16.5529018,18.4217344 13.8659018,16.3477344 12.8149018,15.7057344 C12.4918379,15.9884153 12.0525627,16.4610585 11.5700181,16.9487473 L11.3444984,17.1742658 L11.3444984,17.1742658 L11.1144276,17.3980994 C9.95535175,18.5066855 8.68536986,19.408777 8.20090177,17.9547344 C7.79190177,16.7867344 6.50690177,12.3477344 6.03990177,11.6177344 L1.33790177,10.1277344 C-0.988136689,9.42327287 0.16338698,8.60987051 1.45312008,8.04070181 L1.65742385,7.9529142 C2.06638106,7.78160423 2.47159408,7.63650364 2.76790177,7.52873441 L22.5699018,0.140734411 C23.5629018,-0.239265589 24.0009018,0.169734411 24.0009018,1.13273441 Z M15.6499098,7.40698956 C18.5057666,4.84464768 21.1212946,2.43377013 19.0649018,3.58673441 C17.7509018,4.34573441 12.2609018,7.93773441 10.7709018,8.90173441 C9.86490177,9.51373441 8.31790177,10.5947344 7.41190177,11.0037344 L7.41190177,11.0037344 L7.41190177,11.0047344 L9.07690177,16.4647344 C9.13490177,15.8217344 9.25290177,13.3697344 9.60290177,12.9317344 C9.95290177,12.5517344 10.4789018,12.2017344 11.0049018,11.6467344 C11.8020446,10.8385201 13.5698574,9.27046755 15.3130852,7.70893455 Z" id="Shape"></path>
        </g>
    </g>
</svg>