<svg xmlns="http://www.w3.org/2000/svg" width="20" height="20" viewBox="0 0 20 20">
    <g fill="none" fill-rule="evenodd">
        <g fill="#FFF">
            <g>
                <g>
                    <g>
                        <path d="M5.87.123C4.242.196 2.83.594 1.69 1.729.548 2.869.155 4.286.081 5.897.037 6.902-.231 14.498.545 16.49c.524 1.344 1.554 2.377 2.91 2.903.634.246 1.356.412 2.416.461 8.86.401 12.145.183 13.53-3.364.246-.631.415-1.353.462-2.41.405-8.883-.066-10.809-1.61-12.351C17.027.507 15.586-.325 5.87.123m.081 17.944c-.97-.043-1.496-.205-1.848-.341-.883-.343-1.547-1.004-1.888-1.883-.591-1.514-.395-8.703-.342-9.866.051-1.14.282-2.18 1.086-2.985C3.954 2 5.24 1.513 13.993 1.908c1.142.052 2.186.282 2.992 1.084.995.993 1.489 2.288 1.087 11.008-.044.968-.206 1.493-.342 1.843-.901 2.308-2.973 2.628-11.779 2.224M14.09 4.69c0 .657.534 1.19 1.194 1.19.66 0 1.195-.533 1.195-1.19 0-.658-.536-1.192-1.195-1.192-.66 0-1.194.534-1.194 1.192M4.863 9.988c0 2.815 2.287 5.097 5.11 5.097 2.821 0 5.109-2.282 5.109-5.097 0-2.815-2.288-5.096-5.11-5.096-2.822 0-5.11 2.281-5.11 5.096m1.794 0c0-1.826 1.484-3.308 3.316-3.308 1.832 0 3.317 1.482 3.317 3.308 0 1.827-1.485 3.31-3.317 3.31s-3.316-1.483-3.316-3.31" transform="translate(-156 -2620) translate(0 2472) translate(105 80) translate(51 68)"/>
                    </g>
                </g>
            </g>
        </g>
    </g>
</svg>
