<?xml version="1.0" encoding="UTF-8"?>
<svg width="24px" height="24px" viewBox="0 0 24 24" version="1.1" xmlns="http://www.w3.org/2000/svg" xmlns:xlink="http://www.w3.org/1999/xlink">
    <title>instagram</title>
    <g id="Page-1" stroke="none" stroke-width="1" fill="none" fill-rule="evenodd">
        <g id="instagram">
            <polygon id="Path" points="0 0 24 0 24 24 0 24"></polygon>
            <path d="M7.87,2.123 C6.242,2.196 4.83,2.594 3.691,3.729 C2.548,4.869 2.155,6.286 2.081,7.897 C2.036,8.902 1.768,16.498 2.544,18.49 C3.068,19.834 4.098,20.867 5.454,21.393 C6.088,21.639 6.81,21.805 7.87,21.854 C16.73,22.255 20.015,22.037 21.4,18.49 C21.646,17.859 21.815,17.137 21.862,16.08 C22.267,7.197 21.796,5.271 20.252,3.729 C19.027,2.507 17.586,1.675 7.87,2.123 M7.951,20.067 C6.981,20.024 6.455,19.862 6.103,19.726 C5.22,19.383 4.556,18.722 4.215,17.843 C3.624,16.329 3.82,9.14 3.873,7.977 C3.924,6.837 4.155,5.797 4.959,4.992 C5.954,4 7.24,3.513 15.993,3.908 C17.135,3.96 18.179,4.19 18.985,4.992 C19.98,5.985 20.474,7.28 20.072,16 C20.028,16.968 19.866,17.493 19.73,17.843 C18.829,20.151 16.757,20.471 7.951,20.067 M16.09,6.69 C16.09,7.347 16.624,7.88 17.284,7.88 C17.944,7.88 18.479,7.347 18.479,6.69 C18.479,6.032 17.943,5.498 17.284,5.498 C16.624,5.498 16.09,6.032 16.09,6.69 M6.863,11.988 C6.863,14.803 9.15,17.085 11.973,17.085 C14.794,17.085 17.082,14.803 17.082,11.988 C17.082,9.173 14.794,6.892 11.972,6.892 C9.15,6.892 6.862,9.173 6.862,11.988 M8.656,11.988 C8.656,10.162 10.14,8.68 11.972,8.68 C13.804,8.68 15.289,10.162 15.289,11.988 C15.289,13.815 13.804,15.298 11.972,15.298 C10.14,15.298 8.656,13.815 8.656,11.988" id="Shape" fill="#FFFFFF" fill-rule="nonzero"></path>
        </g>
    </g>
</svg>