<svg xmlns="http://www.w3.org/2000/svg" width="20" height="20" viewBox="0 0 20 20">
    <g fill="none" fill-rule="evenodd">
        <g fill="#FFF">
            <g>
                <g>
                    <g>
                        <path d="M54.858 15.401c-1.598 0-2.118-1.244-1.707-2.641l.593-2.12c.278-.905-.029-1.743-.988-1.743-.845 0-1.402.464-1.689 1.632L49.917 15h-2.012l.361-1.308c-.591.972-1.413 1.645-2.426 1.645-1.56 0-2.046-1.095-1.689-2.614L45.067 9h-1.419l.431-2h3.414l-1.348 5.548c-.159.603-.29 1.341.306 1.475.16.036 1.437.038 2.132-1.507L49.468 9h-1.437l.431-2h3.072l-.395 2.008c.539-1.006 1.617-1.861 2.677-1.861 1.726 0 2.45 1.776 1.869 3.738l-.575 2.078c-.356 1.427.678 1.617 1.329-.186l.791.306c-.468 1.635-1.312 2.318-2.372 2.318M46.684 3.885c.665 0 1.222.521 1.222 1.203 0 .683-.557 1.204-1.222 1.204-.665 0-1.221-.521-1.221-1.204 0-.682.556-1.203 1.221-1.203M58.187 0H41.813C40.812 0 40 .811 40 1.813v16.374c0 1.001.812 1.813 1.813 1.813h16.374C59.188 20 60 19.188 60 18.187V1.813C60 .811 59.188 0 58.187 0" transform="translate(-196 -2620) translate(0 2472) translate(105 80) translate(51 68)"/>
                    </g>
                </g>
            </g>
        </g>
    </g>
</svg>
