<?xml version="1.0" encoding="UTF-8"?>
<svg width="51px" height="37px" viewBox="0 0 51 37" version="1.1" xmlns="http://www.w3.org/2000/svg" xmlns:xlink="http://www.w3.org/1999/xlink">
    <title>Group</title>
    <g id="Page-1" stroke="none" stroke-width="1" fill="none" fill-rule="evenodd">
        <g id="logo-peanuts-butter" fill-rule="nonzero">
            <g id="Group" transform="translate(2.042903, 2.107796)">
                <g transform="translate(0.000000, 0.398270)">
                    <path d="M33.7630968,19.9619342 C33.7630968,19.9619342 32.0210968,21.4139342 31.0980968,22.5649342 C30.1740968,23.7169342 24.8630968,27.0349342 18.1870968,22.7679342 C11.5120968,18.4989342 11.9990968,19.1929342 8.18609682,18.7479342 C4.37209682,18.3019342 -0.603903178,15.5629342 0.060096822,10.0079342 C0.725096822,4.45393419 0.739096822,4.73193419 0.739096822,4.73193419 C0.739096822,4.73193419 2.72209682,3.12493419 4.16209682,1.71693419 C5.60009682,0.309934194 10.3410968,-1.00906581 12.9870968,1.11093419 C15.6350968,3.23093419 18.1390968,6.61493419 20.1120968,7.49193419 C22.3420968,8.48193419 27.8800968,9.36993419 29.7550968,10.8519342 C32.9480968,13.3769342 32.5630968,16.4399342 32.9150968,17.5489342 C33.3270968,18.8519342 33.7630968,19.9619342 33.7630968,19.9619342 Z" id="Path" stroke="#000000" stroke-width="3" fill="#000000"></path>
                    <path d="M32.6480968,19.7899342 C32.1530968,20.1089342 31.6790968,20.8499342 31.2380968,21.2669342 C31.0680968,21.1819342 30.9370968,21.0459342 30.8640968,20.8619342 C30.8810968,20.8669342 30.8820968,20.9279342 30.9040968,20.9189342 C31.1720968,20.7809342 31.4100968,20.5269342 31.6060968,20.3139342 C31.4960968,20.4319342 31.3350968,20.4739342 31.1700968,20.4299342 C31.2760968,20.2999342 31.3330968,20.0749342 31.4640968,19.9789342 C31.5860968,19.8859342 31.8940968,19.8509342 32.0440968,19.7999342 C31.9500968,19.7049342 31.6300968,19.5249342 31.5870968,19.4159342 C31.5170968,19.2319342 31.6840968,19.0249342 31.7270968,18.8279342 C31.8920968,18.9379342 32.0520968,19.0919342 32.2310968,19.1979342 C32.2290968,18.9279342 31.8610968,18.6839342 31.7130968,18.4299342 C31.6060968,18.2479342 31.5470968,18.0139342 31.4580968,17.8399342 C31.5320968,17.7779342 31.6350968,17.5739342 31.6940968,17.4279342 C31.7840968,17.8269342 32.2890968,18.1849342 32.4980968,18.5539342 C32.7070968,18.9189342 32.6730968,19.4339342 32.7260968,19.7309342 M30.7930968,18.9009342 C30.3310968,18.6699342 29.5720968,18.0249342 29.4960968,17.5959342 C29.3910968,16.9929342 29.5290968,16.1269342 29.8030968,15.6009342 C30.2350968,16.0079342 30.5500968,16.7659342 30.8800968,17.2749342 C31.1320968,17.6639342 31.0860968,17.6179342 30.9660968,18.0229342 C30.8860968,18.2929342 30.7120968,18.6629342 30.7340968,18.9199342 M29.0520968,16.9449342 C28.9450968,16.7009342 28.8120968,16.4599342 28.6700968,16.2269342 C28.5820968,16.0839342 28.2880968,15.8179342 28.2700968,15.6769342 C28.2600968,15.6029342 28.4160968,15.3869342 28.4500968,15.3069342 C28.5220968,15.1289342 28.5970968,14.9539342 28.6700968,14.7749342 C28.7550968,14.5749342 28.7940968,14.3429342 28.9060968,14.1599342 C29.1150968,14.4669342 29.5010968,14.8829342 29.4900968,15.2599342 C29.4720968,15.8089342 29.2260968,16.5819342 29.0150968,17.0239342 M27.9570968,15.3649342 C27.7670968,15.2409342 27.5070968,15.1169342 27.3520968,14.9549342 C27.1020968,14.6929342 27.2650968,14.6059342 27.3520968,14.3419342 C27.2150968,14.3299342 27.1020968,14.4219342 27.0080968,14.5159342 C27.0570968,14.3869342 27.1100968,14.2259342 27.0470968,14.0929342 C26.6030968,14.1789342 26.2270968,14.2669342 25.8080968,13.9179342 C25.3480968,13.5349342 26.2670968,12.9329342 26.5850968,12.7279342 C26.6500968,12.8599342 26.6370968,13.0249342 26.6590968,13.1719342 C26.8320968,13.2009342 27.0120968,13.0639342 27.1880968,13.1059342 C27.3360968,13.1409342 27.4170968,13.2779342 27.5300968,13.3599342 C27.7640968,13.5299342 27.9230968,13.6949342 28.1420968,13.8769342 C28.4270968,14.1169342 28.6030968,14.0529342 28.4330968,14.4409342 C28.3150968,14.7109342 28.0050968,15.0769342 27.9970968,15.3509342 M26.1060968,12.3329342 C25.8020968,12.2129342 25.1550968,12.1049342 25.0040968,12.3729342 C24.9250968,12.5119342 24.8900968,12.8029342 24.8180968,12.9659342 C24.7480968,13.1229342 24.6630968,13.2029342 24.7390968,13.4029342 C25.1650968,13.3829342 25.2440968,13.1829342 25.5250968,12.9079342 C25.6870968,12.7479342 25.9050968,12.6819342 26.1060968,12.5979342 C26.0120968,12.4999342 25.9740968,12.3679342 25.9840968,12.2429342 M24.1270968,13.0809342 C23.6810968,13.0639342 23.2770968,12.7569342 22.8970968,12.7469342 C22.6670968,12.7409342 22.4630968,12.9299342 22.4590874,12.6269342 C22.4570968,12.3869342 22.7740968,11.9869342 22.9780968,11.8939342 C23.0140968,11.9769342 23.0660968,12.0719342 23.1200968,12.1469342 C23.2030968,12.0839342 23.2900968,12.0269342 23.3850968,11.9909342 C23.3830968,12.0349342 23.4050968,12.0809342 23.4030968,12.1209342 C23.6140968,12.1109342 23.7760968,11.9209342 24.0230968,11.9169342 C24.2260968,11.9149342 24.4270968,12.0209342 24.6211027,12.0509342 C24.6230968,12.3579342 24.1170968,12.8009342 24.3280968,13.1449342 M22.4070968,11.8399342 C22.1680968,11.8689342 21.8500968,11.8099342 21.5940968,11.7949342 C21.3360968,11.7799342 20.9860968,11.8689342 20.7510968,11.7879342 C20.6190968,12.0279342 20.3690968,12.3279342 20.4070968,12.5749342 C20.8690968,12.5949342 21.3810968,12.5549342 21.8220968,12.6419342 C21.8010968,12.6179342 21.8090968,12.6239342 21.7700968,12.6119342 C21.8300968,12.4489342 21.8130968,12.2689342 21.8870968,12.1089342 C21.9990968,12.1179342 22.1190968,12.0989342 22.2210968,12.0739342 C22.1960968,12.2139342 22.1960968,12.3699342 22.2210968,12.5089342 C22.3050968,12.2629342 22.3730968,12.0739342 22.5540968,11.8789342 M31.5150968,16.9109342 C31.6350968,16.6989342 31.4630968,15.9919342 31.3450968,15.7489342 C31.2680968,15.5909342 31.1890968,15.5589342 31.0770968,15.4269342 C31.0010968,15.3389342 30.9450968,15.1989342 30.8570968,15.1269342 C30.6810968,15.3989342 31.2070968,16.9209342 31.5690968,16.9369342 M30.7670968,14.8869342 C30.8770968,14.7209342 31.1150968,14.7149342 31.2150968,14.5629342 C30.8650968,14.3129342 30.9990968,12.2029342 30.2020968,12.8899342 C29.8680968,13.1789342 30.3550968,13.7839342 30.5210968,14.1619342 C30.6450968,14.4459342 30.7750968,14.7219342 30.8360968,15.0169342 M30.4410968,15.0829342 C30.3430968,15.0229342 30.0490968,14.7489342 29.9900968,14.6429342 C29.8920968,14.4649342 29.9960968,14.1649342 30.0340968,13.9579342 C30.3890968,14.3189342 30.4380968,14.8019342 30.4740968,15.2909342 M29.3470968,14.4019342 C29.3310968,13.8759342 29.8600968,13.1849342 29.5000968,12.7319342 C29.3100968,12.4919342 28.8730968,12.2549342 28.6300968,12.0319342 C28.4050968,11.8269342 28.1520968,11.6259342 27.9490968,11.4159342 C27.5930968,11.6259342 27.4230968,12.1969342 27.2350968,12.5659342 C27.7040968,12.7919342 27.9990968,13.3619342 28.4590968,13.5759342 C28.4790968,13.5799342 28.4970968,13.5769342 28.5140968,13.5679342 C28.5440968,13.3779342 28.6480968,13.2079342 28.7290968,13.0279342 C28.7510968,13.4369342 28.7220968,14.1269342 29.2420968,13.8839342 C29.2900968,14.0379342 29.3790968,14.1759342 29.5000968,14.2859342 M26.8420968,12.2989342 C27.1260968,12.0569342 27.0970968,11.4629342 27.3420968,11.1489342 C27.0400968,11.0219342 26.7500968,10.9689342 26.4490968,10.8229342 C26.2810968,10.9829342 26.0190968,11.6519342 26.0720968,11.8929342 C26.1400968,12.2049342 26.7110968,12.2729342 26.9830968,12.4029342 M29.9270968,12.7069342 C29.7150968,12.2369342 29.3030968,12.0599342 28.9210968,11.7819342 C28.6600968,11.5919342 28.4740968,11.2029342 28.1140968,11.1709342 C28.5060968,10.1289342 28.8480968,11.1629342 29.2810968,11.5029342 C29.5040968,11.6769342 29.6970968,11.7229342 29.8600968,11.9709342 C29.9750968,12.1449342 30.0000968,12.4349342 30.2330968,12.4509342 C30.1900968,12.5379342 30.1110968,12.6239342 30.0180968,12.6759342 M27.6250968,10.8269342 C27.3550968,10.6979342 27.0730968,10.5769342 26.8070968,10.4639342 C26.4970968,10.3319342 26.1680968,10.3019342 25.8770968,10.1739342 C25.3220968,9.93193419 24.6300968,9.73393419 24.1050968,9.43693419 C24.5800968,9.40493419 25.0620968,9.60693419 25.5310968,9.70293419 C25.8850968,9.77693419 26.2470968,9.82093419 26.5670968,9.99493419 C26.9970968,10.2319342 27.4580968,10.3549342 27.9170968,10.6029342 C27.8610968,10.7129342 27.7770968,10.8029342 27.7030968,10.9009342 M25.8830968,10.8799342 C25.4440968,10.6449342 24.9180968,10.5299342 24.4660968,10.3099342 C24.2800968,10.2199342 23.9360968,9.83293419 23.7610968,9.81993419 C23.6150968,9.80993419 23.0900968,10.1979342 22.9190968,10.3159342 C22.7300968,10.4459342 22.5640968,10.8339342 22.3940968,10.8619342 C22.8720968,11.0159342 23.4910968,11.1799342 23.8960968,11.5089342 C24.0670968,11.3609342 24.0810968,11.1209342 24.2550968,10.9519342 C24.2860968,10.9619342 24.3020968,10.9729342 24.3400968,10.9819342 C24.3570968,10.8969342 24.4360968,10.7979342 24.4440968,10.7119342 C24.7390968,10.8089342 25.0450968,10.8899342 25.3300968,10.9889342 C25.1720968,11.2269342 25.1220968,11.4889342 25.0450968,11.7649342 C25.1710968,11.7899342 25.5690968,11.9529342 25.6740968,11.8969342 C25.8390968,11.8069342 25.9140968,11.2069342 26.0410968,11.0269342 M23.1920968,9.80993419 C23.1000968,9.57993419 22.6730968,10.1299342 22.5420968,10.2199342 C22.2920968,10.3899342 21.9640968,10.5999342 21.6400968,10.5829342 C21.3300968,10.5649342 20.8080968,10.1789342 20.5860968,9.99293419 C20.5190968,9.93593419 20.1120968,9.66593419 20.0910968,9.60793419 C20.0310968,9.44593419 20.3490968,9.15093419 20.4650968,9.05393419 C20.6390968,8.90793419 20.9750968,8.62693419 21.2050968,8.60393419 C21.2610968,9.00693419 21.9010968,9.21093419 22.2290968,9.34693419 C22.4630968,9.44493419 22.9120968,9.79193419 23.1290968,9.77893419 M23.5150968,9.37393419 C23.0870968,9.32493419 22.6030968,9.30893419 22.2150968,9.08593419 C22.3830968,9.05293419 22.5050968,8.91693419 22.5190968,8.75593419 C22.9290968,8.92393419 23.3250968,9.01393419 23.7470968,9.12093419 C23.6420968,9.17093419 23.5500968,9.25893419 23.5150968,9.37393419 M15.3870968,6.43693419 C15.5300968,6.07193419 15.7990968,5.82693419 16.0700968,5.58693419 C16.8020968,6.23493419 17.4790968,7.22893419 18.3430968,7.74693419 C18.7570968,7.99493419 19.1990968,8.19193419 19.6330968,8.39993419 C20.0260968,8.58793419 20.5400968,9.01793419 20.7110968,8.36793419 C20.4670968,8.31493419 20.2180968,8.18093419 19.9710968,8.11793419 C19.6750968,8.04193419 19.3990968,8.02393419 19.1290968,7.86193419 C18.7710968,7.64793419 18.4500968,7.34393419 18.1230968,7.07693419 C17.7590968,6.77993419 17.3700968,6.51693419 17.0900968,6.14693419 C16.8480968,5.82693419 16.6420968,5.53993419 16.3810968,5.25893419 C16.0600968,5.38393419 15.2810968,5.92493419 15.4440968,6.31693419 M22.7970968,11.4299342 C22.6010968,11.2159342 22.0230968,10.9879342 21.7130968,10.9149342 C21.5830968,11.0649342 21.2160968,11.3849342 21.0310968,11.3969342 C21.3630968,11.4689342 21.7190968,11.4009342 22.0360968,11.4439342 C22.2830968,11.4759342 22.5260968,11.5519342 22.7850968,11.5339342 M19.5400968,12.9699342 C20.0250968,12.9179342 19.9050968,11.8669342 20.3800968,11.6879342 C19.6020968,11.6379342 19.2240968,11.0839342 18.5700968,10.8049342 C18.5700968,10.8409342 18.5750968,10.8849342 18.5800968,10.9229342 C18.1580968,11.1609342 17.8760968,11.8449342 17.6620968,12.2919342 C17.5020968,12.6249342 17.3350968,12.9719342 17.1520968,13.3319342 C17.3430968,13.0799342 17.6820968,12.9539342 17.8780968,12.6819342 C18.0280968,12.4739342 18.0650968,12.2769342 18.3580968,12.2549342 C18.7960968,12.2219342 19.3240968,12.7169342 19.7650968,12.8199342 M17.2100968,11.7049342 C17.5370968,11.3669342 17.7440968,10.8419342 18.0350968,10.4749342 C17.5970968,9.98993419 17.0530968,9.49193419 16.7040968,8.95793419 C16.1940968,9.37193419 16.0160968,10.2479342 15.7200968,10.8299342 C16.0120968,10.8099342 16.4070968,10.3979342 16.6640968,10.4359342 C17.0490968,10.4939342 16.7380968,11.0909342 17.3240968,11.1359342 C17.2660968,11.2989342 17.1510968,11.6389342 17.4370968,11.6289342 M15.3000968,10.1989342 C15.6150968,9.90893419 15.6520968,9.31593419 15.8300968,8.93193419 C15.9400968,8.69893419 16.0660968,8.52393419 16.2030968,8.31993419 C15.9160968,8.23793419 15.5730968,7.62393419 15.3630968,7.35893419 C15.2630968,7.23393419 15.0330968,6.77293419 14.9160968,6.71893419 C14.4160968,6.48893419 14.0260968,8.12893419 13.8300968,8.40993419 C13.6620968,8.65393419 13.3800968,8.66393419 13.5200968,8.97593419 C13.6860968,9.35493419 14.0540968,9.32193419 14.2940968,9.09793419 C14.4140968,8.98493419 14.3560968,8.84393419 14.5400968,8.83793419 C14.6600968,8.83493419 14.8520968,9.02193419 14.9060968,9.11493419 C15.0960968,9.43493419 14.9580968,9.47793419 15.0400968,9.70593419 C15.2150968,10.1889342 15.2050968,10.2739342 15.3000968,10.1989342 M20.7770968,10.8679342 C20.6230968,10.9449342 20.4100968,10.9849342 20.2770968,11.1019342 C20.0100968,11.0049342 19.8070968,10.7699342 19.5670968,10.6279342 C19.3790968,10.5179342 19.0770968,10.4779342 18.9490968,10.3139342 C19.2420968,10.1439342 19.4220968,9.75793419 19.6610968,9.53393419 C19.8220968,9.80693419 19.8510968,10.1299342 20.0590968,10.3769342 C20.2590968,10.6129342 20.5940968,10.8429342 20.8730968,10.9869342" id="Shape" fill="#FFCC66"></path>
                    <path d="M18.4550968,9.90193419 C18.8450968,9.71293419 18.9930968,9.08093419 19.3650968,8.93293419 C18.7690968,8.79293419 18.2000968,8.41893419 17.7010968,8.05493419 C17.2810968,7.74993419 17.0270968,7.26893419 16.6890968,6.91893419 C16.5650968,7.13893419 16.2880968,7.48893419 16.3140968,7.73193419 C16.2570968,7.76093419 16.2490968,7.79793419 16.2200968,7.82693419 C16.4700968,7.97693419 16.6680968,8.28693419 16.8320968,8.51693419 C16.9440968,8.37393419 17.1070968,8.21393419 17.2930968,8.16893419 C17.3580968,8.33793419 17.6080968,8.50893419 17.7650968,8.61693419 C17.5040968,8.66993419 17.1510968,9.00793419 17.6050968,9.11993419 C17.7650968,8.87093419 17.8300968,8.72993419 18.1090968,8.63993419 C18.0520968,8.75993419 18.0770968,8.89093419 18.1680968,8.99493419 C18.2000968,8.96693419 18.2540968,8.95293419 18.2910968,8.90593419 C18.3130968,8.91493419 18.3880968,8.95993419 18.4040968,8.96093419 C18.3850968,9.40393419 18.1540968,9.75493419 18.6590968,10.0359342 M15.5410968,6.99193419 C15.6310968,6.85293419 15.8140968,6.15193419 15.9240968,6.10393419 C16.0890968,6.03393419 16.3200968,6.46493419 16.4390968,6.61593419 C16.3480968,6.90593419 15.9980968,7.08093419 15.9690968,7.37093419 C15.8890968,7.24893419 15.8020968,7.12893419 15.7250968,7.00493419 M30.7850968,19.4309342 C30.4490968,20.2169342 29.3260968,19.6329342 28.8610968,19.2409342 C28.9220968,18.9969342 28.9860968,18.8839342 29.0960968,18.6589342 C29.1720968,18.5059342 29.3090968,18.2089342 29.2320968,18.0649342 C29.5190968,18.6589342 30.2840968,19.0289342 30.7850968,19.4309342 M28.0970968,16.4449342 C28.5390968,16.8039342 28.7240968,17.4079342 29.0030968,17.8849342 C28.7660968,18.1059342 28.6570968,18.6889342 28.5860968,18.9969342 C28.3830968,18.9169342 27.9840968,18.7889342 27.8540968,18.6189342 C27.6820968,18.3939342 27.8340968,18.2569342 27.9170968,18.0189342 C28.0170968,17.7319342 27.9750968,17.5449342 27.9340968,17.2599342 C27.9000968,17.0249342 27.8640968,16.7099342 28.1170968,16.5779342 C28.1820968,16.6179342 28.2630968,16.6659342 28.3050968,16.7279342 M27.1980968,18.0819342 C26.9800968,17.8659342 26.5250968,17.5979342 26.2180968,17.4599342 C25.9480968,17.3379342 25.6030968,17.3699342 25.3610968,17.2319342 C25.4450968,16.8059342 25.5950968,16.3819342 25.7630968,15.9789342 C25.8400968,15.7949342 25.8930968,15.4539342 25.9970968,15.3309342 C26.3350968,15.6159342 26.7670968,15.8009342 27.1610968,15.9939342 C27.3880968,16.1039342 27.6750968,16.6709342 27.7940968,16.6699342 C27.8000968,16.6809342 27.7620968,16.5659342 27.7640968,16.5819342 C27.2880968,16.9009342 27.2360968,17.7539342 27.3990968,18.1409342 M24.8050968,16.7869342 C24.7780968,16.3309342 25.1020968,15.5829342 25.2820968,15.1369342 C24.9860968,15.2269342 24.1980968,14.8849342 23.8910968,14.7289342 C23.6910968,15.1689342 23.3920968,15.6949342 23.3110968,16.1749342 C23.6990968,16.3899342 24.2690968,16.7549342 24.6810968,16.7269342 M22.8580968,16.0739342 C23.1100968,15.6779342 23.1950968,14.9849342 23.4510968,14.5909342 C22.8610968,14.6189342 22.0600968,13.8309342 21.5270968,14.0769342 C21.2770968,14.1929342 21.1150968,14.6589342 21.0190968,14.8969342 C20.8350968,15.3519342 20.8350968,15.7629342 21.2720968,16.0139342 C21.1860968,16.0589342 21.0930968,16.1779342 21.1620968,16.2879342 C21.2560968,16.4419342 21.6650968,16.2929342 21.7850968,16.2619342 C22.1900968,16.1549342 22.5470968,16.0019342 22.9630968,16.0139342 M25.2320968,14.7019342 C24.8700968,14.6619342 24.5070968,14.4349342 24.1330968,14.4659342 C24.2060968,14.2799342 24.2970968,13.9639342 24.4890968,13.8669342 C24.7600968,13.7299342 25.2610968,14.1819342 25.5520968,14.3439342 C25.4780968,14.5339342 25.4320968,14.7169342 25.2990968,14.8809342 M26.1750968,15.0429342 C26.4650968,15.2509342 27.1140968,15.7249342 27.5210968,15.8149342 C27.5490968,15.8669342 27.6050968,15.9099342 27.6340968,15.9579342 C28.0810968,15.6319342 27.1060968,15.3999342 26.9620968,15.3109342 C26.7860968,15.2029342 26.6330968,14.9039342 26.4630968,14.8209342 C26.2420968,14.7099342 26.0750968,14.8609342 26.1940968,15.1629342 M23.5030968,14.0939342 C23.0530968,13.8519342 22.5510968,13.9979342 22.1260968,13.8739342 C22.3230968,13.5439342 22.3820968,13.4019342 22.7520968,13.4299342 C23.0650968,13.4529342 23.3590968,13.6309342 23.6660968,13.6599342 C23.6430968,13.8469342 23.5830968,14.0629342 23.4290968,14.1699342 M19.9290968,15.7409342 C20.1850968,15.5849342 20.4750968,15.0409342 20.6790968,14.7339342 C20.7930968,14.5619342 21.2000968,14.1739342 21.1500968,14.0049342 C20.9400968,14.2489342 20.3210968,14.1689342 20.0770968,14.0119342 C19.7250968,13.7879342 19.4560968,13.5059342 19.0370968,13.3979342 C18.9020968,13.7179342 18.6220968,13.9319342 18.4630968,14.2629342 C18.3550968,14.4879342 18.2350968,14.7089342 18.0740968,14.9179342 C18.3190968,15.2119342 18.9320968,15.2809342 19.2750968,15.4299342 C19.4680968,15.5139342 19.9360968,15.8479342 20.1270968,15.7259342 M13.1690968,8.43893419 C12.8510968,8.22493419 13.8650968,7.04493419 14.0510968,6.75693419 C14.1910968,6.54093419 14.3990968,6.36893419 14.2610968,6.15893419 C14.1000968,5.91093419 13.5240968,5.69893419 13.2690968,5.50393419 C13.0950968,5.37193419 12.8590968,4.93293419 12.6960968,4.88893419 C12.3870968,4.80493419 12.2540968,5.33393419 12.1530968,5.54393419 C11.8680968,6.13893419 11.4090968,6.82193419 11.2820968,7.45393419 C11.4760968,7.55893419 11.6820968,7.70693419 11.8440968,7.61793419 C12.0390968,7.50993419 11.9980968,7.22993419 12.2640968,7.16093419 C12.3360968,7.26493419 12.3820968,7.30493419 12.4890968,7.37893419 C12.4410968,7.47293419 12.3740968,7.63293419 12.4050968,7.74193419 C12.4600968,7.93593419 12.5590968,7.86193419 12.6210968,7.92493419 C12.7790968,8.08493419 12.9180968,8.36293419 13.1970968,8.37893419 M12.1280968,4.80093419 C11.5410968,5.38093419 11.4550968,6.41793419 10.9380968,7.03093419 C10.4190968,6.76893419 9.80709682,6.83393419 9.26309682,6.63893419 C8.89009682,6.50593419 8.64709682,6.20393419 8.34909682,5.94393419 C8.66209682,6.06393419 9.00009682,5.79893419 9.26709682,5.67393419 C9.72409682,5.45893419 9.94309682,5.36393419 10.2920968,4.96993419 C10.5300968,4.70293419 10.8210968,4.31293419 11.2420968,4.41393419 C11.5720968,4.49193419 11.7840968,4.87593419 12.1160968,4.90693419 M10.0800968,4.29993419 C9.77009682,3.97793419 8.84709682,4.97193419 8.51109682,5.10793419 C8.26009682,5.20893419 7.96809682,5.36793419 7.70609682,5.44993419 C7.38909682,5.54993419 7.26709682,5.37993419 6.94109682,5.27693419 C6.55809682,5.15693419 6.42209682,5.18993419 6.57609682,4.76493419 C6.67109682,4.50493419 6.87709682,4.13193419 7.05609682,3.91893419 C7.18309682,3.76893419 7.42209682,3.63193419 7.56509682,3.50093419 C7.90809682,3.18593419 8.12109682,3.36293419 8.55409682,3.50493419 C8.81109682,3.58893419 9.04009682,3.64793419 9.29009682,3.78193419 C9.51209682,3.90193419 9.72609682,4.10893419 9.95409682,4.16593419 M5.79909682,4.79493419 C5.55809682,4.50193419 4.77509682,4.47493419 4.41609682,4.49293419 C4.27109682,4.50093419 4.13309682,4.62993419 4.02109682,4.50793419 C3.86809682,4.33993419 4.20509682,3.96293419 4.31109682,3.82193419 C4.65009682,3.36793419 5.08809682,3.67293419 5.61409682,3.53293419 C6.03409682,3.42293419 6.32509682,3.27393419 6.77709682,3.32193419 C6.24209682,3.69393419 6.23509682,4.39193419 5.84709682,4.85493419 M3.54209682,3.45493419 C3.56509682,3.38493419 3.58809682,3.33893419 3.55609682,3.27193419 C3.39609682,3.41693419 3.12209682,3.33793419 2.95809682,3.46193419 C2.82109682,3.56493419 2.77509682,3.82493419 2.58709682,3.95893419 C2.38709682,4.09993419 2.22609682,4.19593419 2.06409682,4.37193419 C1.72709682,4.73893419 1.50909682,5.29493419 1.39609682,5.78093419 C1.30109682,6.19193419 1.21609682,6.61593419 1.14209682,7.03293419 C1.03209682,7.64393419 0.782096822,8.28993419 0.876096822,8.92193419 C1.05509682,8.71593419 1.22809682,8.50893419 1.29309682,8.24693419 C1.36009682,7.97193419 1.30309682,7.70393419 1.36709682,7.43293419 C1.48509682,6.94493419 1.56709682,6.47293419 1.82009682,6.02993419 C1.94509682,6.30393419 2.11409682,6.59393419 2.29509682,6.84193419 C2.34309682,6.55393419 2.53509682,6.22993419 2.64709682,5.94593419 C2.41109682,5.86393419 2.08909682,5.81593419 2.16509682,5.52693419 C2.28809682,5.06393419 2.70809682,5.39993419 2.97309682,5.35093419 C2.93409682,5.16093419 2.98809682,4.95093419 3.05509682,4.77393419 C2.90709682,4.78093419 2.74709682,4.85293419 2.61009682,4.91393419 C2.90009682,4.68693419 2.96309682,4.32993419 3.17709682,4.05393419 C3.28409682,3.91493419 3.43209682,3.86893419 3.55209682,3.75593419 C3.83809682,3.48393419 3.93209682,3.17293419 4.03209682,2.81393419 C3.50809682,2.92193419 3.35209682,3.64793419 3.05409682,3.99593419 C2.68809682,4.42493419 2.09809682,4.69993419 1.80409682,5.16893419 M17.6650968,14.6559342 C17.5320968,14.5099342 18.3880968,13.6819342 18.5570968,13.5009342 C18.2590968,13.3399342 17.9800968,13.2449342 17.6530968,13.1789342 C17.4790968,13.5789342 17.0630968,13.7789342 16.9300968,14.1929342 C16.8540968,14.4349342 16.8600968,14.6259342 16.7000968,14.8599342 C16.5450968,15.0849342 16.4320968,15.2259342 16.3800968,15.5049342 C16.7360968,15.2999342 17.2400968,14.5609342 17.6670968,14.7309342 M30.4010968,21.4259342 C29.9690968,21.8119342 29.5990968,22.0959342 29.0210968,22.3159342 C28.5810968,22.4829342 28.1870968,22.7199342 27.7500968,22.8879342 C27.9240968,23.2449342 28.1920968,22.9519342 28.4300968,22.8519342 C28.7020968,22.7369342 28.9490968,22.7389342 29.2270968,22.6369342 C29.7010968,22.4639342 30.7470968,22.1709342 30.2950968,21.4869342 M27.2040968,23.4009342 C27.0940968,23.6269342 25.5320968,23.8589342 25.1860968,23.8689342 C25.0300968,23.2689342 25.3490968,23.0989342 25.8610968,22.9389342 C26.3410968,22.7889342 26.7210968,23.0929342 27.2050968,23.0829342 C27.2120968,23.1789342 27.2490968,23.3079342 27.2500968,23.3859342 M24.5090968,23.7709342 C24.0470968,23.8699342 23.4720968,23.8409342 22.9930968,23.8419342 C23.1330968,23.5049342 23.4330968,22.5089342 23.7840968,22.3579342 C23.9760968,22.6079342 23.9560968,22.7059342 23.8280968,22.9639342 C23.6920968,23.2329342 23.5360968,23.3709342 23.9220968,23.2679342 C24.1530968,23.2049342 24.3890968,22.9349342 24.6250968,23.2269342 C24.8030968,23.4469342 24.5770968,23.5849342 24.5560968,23.8299342 M30.8620968,19.9859342 C30.7310968,20.1219342 30.6380968,20.4319342 30.5560968,20.6049342 C30.4130968,20.9079342 30.3120968,20.9649342 29.9540968,21.0899342 C29.5540968,21.2309342 29.2320968,21.3799342 28.9000968,21.6299342 C28.7220968,21.7649342 28.5180968,21.9469342 28.3000968,22.0049342 C28.5690968,21.3269342 28.8140968,20.7149342 28.9120968,19.9869342 C29.2690968,20.3239342 30.2460968,20.2999342 30.6730968,20.3009342 M28.2460968,20.9089342 C28.1600968,20.6459342 28.5020968,20.1369342 28.5440968,19.8019342 C28.2740968,19.6739342 28.1310968,19.5239342 27.9390968,19.3219342 C27.8140968,19.1919342 27.7620968,19.0599342 27.5820968,19.0399342 C27.5610968,19.2599342 27.3850968,19.5419342 27.2850968,19.7479342 C27.1970968,19.9299342 26.9500968,20.2429342 27.0170968,20.4689342 C27.1170968,20.8039342 27.5350968,20.6839342 27.8120968,20.7089342 C28.0220968,20.7289342 28.1590968,20.8159342 28.3370968,20.8789342 M26.4870968,20.3609342 C26.5890968,19.8039342 26.8730968,19.1409342 27.2120968,18.6929342 C26.6820968,18.5319342 25.9080968,17.7659342 25.3750968,18.2029342 C25.0920968,18.4349342 25.1950968,18.8339342 25.1070968,19.1819342 C25.0300968,19.4849342 24.7870968,19.8299342 24.8050968,20.1419342 C25.1510968,20.1539342 25.4790968,20.0929342 25.8200968,20.0849342 C26.1150968,20.0769342 26.3800968,20.2249342 26.6520968,20.2549342 M24.3790968,19.9049342 C23.8910968,19.8189342 23.4790968,19.9559342 23.0210968,19.8049342 C23.1090968,19.5599342 23.4500968,19.4379342 23.3640968,19.1359342 C22.9140968,19.6319342 22.6890968,19.7149342 22.0080968,19.6119342 C22.2260968,19.3729342 22.3810968,18.8189342 22.5340968,18.5029342 C22.6160968,18.3329342 22.6300968,18.1039342 22.7290968,17.9319342 C22.8590968,17.7049342 23.0550968,17.7819342 23.1250968,17.5329342 C23.3430968,17.8229342 23.7230968,18.0929342 24.0710968,18.1609342 C24.3390968,18.2139342 24.5990968,18.1109342 24.8430968,18.2859342 C24.8310968,18.5689342 24.5170968,18.7949342 24.4300968,19.0799342 C24.3320968,19.4039342 24.2000968,19.7689342 24.1400968,20.0849342 M24.9570968,17.7449342 C24.6220968,17.6349342 24.2050968,17.6529342 23.8800968,17.5249342 C23.5580968,17.3979342 23.4250968,17.0389342 23.0300968,17.0779342 C23.1190968,16.9179342 23.2420968,16.7559342 23.3670968,16.6179342 C23.8570968,17.0069342 24.7050968,17.2729342 25.0190968,17.7749342 M22.3350968,17.4849342 C22.1300968,17.4629342 21.8400968,17.2199342 21.6430968,17.1099342 C21.6370968,17.0969342 21.6010968,16.9959342 21.5970968,16.9849342 C21.9370968,16.8749342 22.4540968,16.5349342 22.8070968,16.6479342 C22.6220968,16.6499342 22.2510968,17.4359342 22.3070968,17.5449342 M20.0590968,16.5039342 C20.4390968,16.5639342 20.7790968,16.7939342 21.1390968,16.8669342 C21.0820968,16.5809342 20.8100968,16.2529342 20.6990968,15.9669342 C20.5200968,15.9809342 20.2720968,16.2949342 20.1630968,16.4439342 M22.3380968,18.1139342 C21.9480968,18.4589342 21.9780968,19.0269342 21.6560968,19.4439342 C21.3660968,19.2759342 20.8530968,19.4649342 20.5110968,19.3789342 C20.0340968,19.2589342 19.8390968,19.0219342 19.4300968,18.7819342 C19.6070968,18.3039342 19.7030968,17.7609342 19.9470968,17.3059342 C20.0000968,17.3479342 20.1060968,17.3549342 20.1590968,17.3969342 C20.1690968,17.3329342 20.2170968,17.2929342 20.2160968,17.2219342 C20.5900968,17.8009342 21.4600968,18.0959342 22.1260968,18.1599342 M19.9380968,13.4929342 C20.0790968,13.6929342 20.7970968,13.8789342 21.0640968,13.8469342 C21.2840968,13.8189342 21.7090968,13.3989342 21.8470968,13.1569342 C21.3470968,13.0819342 20.7770968,13.1869342 20.3050968,12.8989342 C20.2390968,13.0569342 20.0890968,13.2489342 20.0410968,13.3589342 M18.6310968,16.7809342 C18.3000968,16.5879342 18.1410968,16.0879342 17.7410968,16.4199342 C17.4690968,16.6449342 17.3260968,17.2279342 17.2690968,17.5619342 C17.6240968,17.7349342 17.6400968,17.8659342 17.8600968,18.1459342 C18.1000968,18.4519342 18.6350968,18.7459342 18.9610968,18.4509342 C19.3070968,18.1389342 19.3240968,17.4929342 19.6150968,17.1179342 C19.3310968,17.1849342 18.8850968,16.9279342 18.6310968,16.7809342 Z M19.4330968,16.5369342 C19.0610968,16.4569342 18.6700968,16.0639342 18.3030968,15.8789342 C18.6570968,15.4039342 18.7550968,15.7369342 19.2150968,15.9529342 C19.5990968,16.1349342 19.8320968,16.2269342 19.4040968,16.5969342 M26.2090968,20.7819342 C26.3040968,20.9909342 26.1690968,21.3279342 26.1660968,21.5719342 C26.1620968,21.7869342 26.2470968,22.2539342 26.0130968,22.3899342 C25.9590968,22.4199342 25.7170968,22.3719342 25.6290968,22.3879342 C25.4650968,22.4169342 25.3310968,22.4939342 25.1760968,22.5379342 C24.9020968,22.6159342 24.5840968,22.6319342 24.5560968,22.3169342 C24.5460968,22.2009342 24.6590968,22.0089342 24.6740968,21.8949342 C24.6910968,21.7629342 24.6700968,21.6209342 24.6820968,21.4929342 C24.6960968,21.3699342 24.6720968,20.9019342 24.7450968,20.8269342 C24.8430968,20.7269342 25.3390968,20.8099342 25.4720968,20.8069342 C25.7360968,20.7999342 26.0300968,20.8299342 26.2850968,20.7809342 M28.1950968,21.2539342 C27.9380968,21.5289342 27.0270968,20.7509342 26.7200968,21.1659342 C26.4900968,21.4759342 26.7800968,22.1119342 26.5260968,22.4399342 C26.5320968,22.4519342 26.5360968,22.4639342 26.5400968,22.4769342 C26.8400968,22.4619342 27.0410968,22.2969342 27.2630968,22.2569342 C27.5250968,22.2069342 27.8180968,22.4129342 28.0790968,22.3829342 C28.0420968,22.1629342 27.9670968,21.9629342 28.0330968,21.7329342 C28.0830968,21.5549342 28.3130968,21.3909342 28.1950968,21.2539342 M24.1280968,20.7449342 C23.4360968,20.6649342 22.7540968,20.5119342 22.0880968,20.4009342 C21.9430968,20.7379342 21.9020968,20.9889342 21.8160968,21.3349342 C21.7560968,21.5749342 21.3730968,21.7959342 21.5160968,22.0719342 C21.8900968,22.1519342 22.1240968,21.8639342 22.4530968,21.8699342 C22.5900968,21.8729342 22.7210968,21.9899342 22.8700968,21.9989342 C23.0320968,22.0059342 23.1950968,21.9249342 23.3580968,21.8989342 C23.6500968,21.8489342 23.9020968,22.0309342 24.0340968,21.8159342 C24.1860968,21.5679342 24.0250968,21.0789342 24.0240968,20.8049342 M22.3820968,23.6729342 C22.0600968,23.6779342 20.5650968,23.4579342 20.5220968,23.0779342 C20.4570968,22.5149342 21.1540968,23.0119342 21.3250968,23.0929342 C21.6380968,23.2399342 22.1180968,23.3759342 22.4520968,23.3069342 C22.5950968,23.4489342 22.4800968,23.5869342 22.4290968,23.7329342 M19.7570968,22.7839342 C19.5290968,22.5399342 17.5990968,21.9019342 17.8680968,21.4039342 C18.4750968,21.6569342 19.7060968,22.1249342 19.9480968,22.7719342 C19.9270968,22.7989342 19.9030968,22.8169342 19.8800968,22.8429342 M17.1270968,21.2649342 C17.1250968,21.1329342 17.1850968,21.0219342 17.2950968,20.9669342 C16.7820968,20.6099342 16.2060968,20.4489342 15.6790968,20.1729342 C16.1250968,20.6389342 16.7980968,20.8329342 17.3090968,21.2049342 M14.6120968,19.4319342 C14.0160968,18.7899342 12.5270968,18.7469342 11.7240968,18.7089342 C11.7620968,18.5889342 11.9240968,18.2489342 12.0410968,18.2079342 C12.2510968,18.1329342 12.9250968,18.4999342 13.1260968,18.5619342 C13.5960968,18.7079342 14.3720968,18.9529342 14.6860968,19.3559342 M20.7170968,22.2109342 C20.9770968,21.9649342 21.1650968,21.3629342 21.2230968,21.0139342 C21.2540968,20.8289342 21.1330968,20.5419342 21.2710968,20.4119342 C20.6680968,20.6149342 20.3340968,20.3389342 19.7610968,20.1279342 C19.6370968,20.0819342 19.3050968,19.8959342 19.1860968,19.9319342 C19.0090968,19.9839342 18.8200968,20.4429342 18.7400968,20.6069342 C18.6550968,20.7819342 18.5390968,20.9889342 18.6360968,21.1399342 C18.7810968,21.3649342 19.4120968,21.5459342 19.6770968,21.6749342 C20.0390968,21.8519342 20.4890968,22.0319342 20.8370968,22.1209342 M18.8270968,19.3109342 C18.1300968,19.0889342 17.2570968,19.2029342 16.9050968,18.4049342 C16.5210968,18.5039342 16.4530968,18.9429342 16.2030968,19.2279342 C16.4690968,19.4949342 16.7250968,19.7439342 16.9800968,20.0019342 C17.2600968,20.2879342 17.6400968,20.9149342 18.0490968,20.5729342 C18.3990968,20.2809342 18.3550968,19.6289342 18.6580968,19.2809342 C18.3900968,19.7759342 18.1240968,20.2709342 17.8610968,20.7689342 M16.8730968,17.3409342 C16.6500968,17.1649342 16.2350968,16.6139342 15.8370968,16.7939342 C16.0490968,16.3739342 16.2200968,16.2099342 16.5600968,15.9439342 C16.8130968,15.7479342 16.9540968,15.3989342 17.1830968,15.1779342 C17.3710968,15.3239342 17.6390968,15.4079342 17.8530968,15.5279342 C17.6600968,15.6159342 17.3010968,16.1599342 17.1930968,16.3409342 C17.1030968,16.4879342 16.8480968,17.1869342 16.9040968,17.3549342" id="Shape" fill="#FFCC66"></path>
                    <path d="M16.6490968,18.0459342 C16.3490968,17.8589342 16.1580968,17.4899342 15.8060968,17.3519342 C15.4550968,17.8559342 15.1250968,18.5259342 14.6220968,18.8789342 C15.3960968,18.9489342 15.5100968,19.6689342 16.0820968,19.9179342 C16.0110968,19.6679342 15.8230968,19.1519342 15.8930968,18.9029342 C15.9450968,18.7219342 16.1930968,18.5509342 16.2930968,18.3909342 C16.3660968,18.2709342 16.4510968,18.0359342 16.4950968,17.9709342 M14.7970968,6.15493419 C14.9830968,5.73493419 15.3710968,5.37493419 15.7160968,5.08093419 C15.4190968,4.75393419 15.1050968,4.37093419 14.7560968,4.09493419 C14.3240968,3.75493419 14.1260968,4.02093419 13.8470968,4.41493419 C13.2720968,5.22993419 14.7250968,5.61793419 14.9870968,6.31893419 M13.1100968,4.42293419 C12.7820968,4.20293419 12.5910968,3.98393419 12.1700968,3.85293419 C12.0370968,3.81093419 11.3270968,3.79293419 11.2710968,3.70093419 C11.0940968,3.40993419 12.0460968,2.64093419 12.2200968,2.45893419 C12.4520968,2.90893419 13.4590968,3.36393419 13.9340968,3.56893419 C13.8740968,3.77693419 13.6000968,3.90393419 13.4740968,4.07893419 C13.3470968,4.25493419 13.2640968,4.45793419 13.1320968,4.61893419 M14.5210968,3.54893419 C14.6840968,3.55593419 14.8390968,3.51393419 14.9850968,3.44693419 C14.6920968,3.20293419 14.3880968,2.96493419 14.0870968,2.72193419 C13.6890968,2.40193419 13.1990968,2.17293419 12.8210968,1.85193419 C12.7970968,2.00693419 12.7210968,2.14893419 12.6240968,2.26493419 C13.3800968,2.67993419 13.9140968,3.36393419 14.6940968,3.74293419 M12.2410968,1.93893419 C12.2940968,1.66293419 12.3710968,1.63793419 12.1590968,1.45693419 C11.9720968,1.29693419 11.6380968,1.20693419 11.4150968,1.09993419 C11.0910968,0.944934194 10.2650968,0.514934194 9.98309682,0.939934194 C9.77609682,1.25193419 10.8090968,1.32593419 11.0770968,1.42593419 C11.4270968,1.55593419 11.8670968,1.90593419 12.2100968,1.92493419 M10.4580968,3.66893419 C10.9080968,3.31493419 11.2330968,2.79193419 11.5920968,2.40893419 C11.3770968,2.35893419 11.1690968,2.21893419 10.9490968,2.16893419 C10.6170968,2.09293419 10.6410968,2.13893419 10.4560968,2.42193419 C10.2000968,2.81593419 9.91309682,3.21093419 9.67409682,3.58393419 C9.82509682,3.64093419 10.4820968,3.76193419 10.5340968,3.66893419 M9.24709682,3.01493419 C8.87509682,3.03693419 8.44509682,2.55693419 7.95509682,2.60593419 C7.69509682,2.63193419 7.50009682,2.68593419 7.22409682,2.69493419 C7.27609682,2.15793419 8.01009682,1.80493419 8.21809682,1.27193419 C8.64209682,1.49693419 9.06309682,1.51193419 9.51309682,1.58193419 C9.78009682,1.62493419 10.0360968,1.78393419 10.2910968,1.85893419 C10.1710968,2.13093419 9.85109682,2.37193419 9.69109682,2.65993419 C9.57309682,2.87493419 9.47409682,3.09293419 9.28409682,3.25393419 M9.34109682,1.06693419 C9.47509682,0.948934194 9.49109682,0.772934194 9.55109682,0.615934194 C8.85109682,0.666934194 8.30109682,0.803934194 7.63709682,0.989934194 C7.91309682,1.13793419 8.29709682,1.05493419 8.59209682,1.06993419 C8.87309682,1.08493419 9.20309682,1.23993419 9.46509682,1.12593419 M6.55309682,2.90493419 C6.33609682,2.72293419 5.71709682,2.95393419 5.40909682,2.98293419 C5.08209682,3.01493419 4.75609682,2.97593419 4.43709682,2.95693419 C4.56709682,2.73693419 4.84809682,2.38193419 5.04909682,2.21893419 C5.31109682,2.00593419 5.53609682,2.13593419 5.85509682,2.04793419 C6.17009682,1.96093419 6.41009682,1.70793419 6.71709682,1.60793419 C6.99909682,1.51493419 7.23109682,1.73393419 7.47209682,1.65193419 C7.27809682,1.75793419 6.48209682,2.88393419 6.55509682,2.97893419 M5.72209682,1.69393419 C5.70209682,1.63393419 5.65709682,1.40393419 5.69609682,1.28193419 C6.03609682,1.37293419 6.82609682,1.03993419 7.19209682,0.935934194 C7.22209682,1.04893419 7.20509682,1.16593419 7.14409682,1.26193419 C6.90809682,1.24693419 6.57109682,1.27193419 6.35009682,1.33893419 C6.08009682,1.41893419 5.99009682,1.64993419 5.77009682,1.75393419 M14.0210968,18.5949342 C13.8310968,18.5949342 13.4940968,18.2749342 13.2590968,18.1929342 C12.9940968,18.1019342 12.7190968,18.0569342 12.4590968,17.9559342 C12.2160968,17.8629342 12.0770968,17.7719342 11.8150968,17.7859342 C11.5620968,17.7999342 11.3030968,17.9099342 11.0410968,17.8259342 C11.0470968,17.6009342 11.2600968,17.0789342 11.4880968,16.9729342 C11.7410968,16.8569342 12.1850968,17.1349342 12.4200968,17.2359342 C12.8100968,17.4019342 13.2100968,17.5539342 13.5870968,17.7589342 C13.8140968,17.8829342 14.1190968,18.1209342 14.3380968,18.1629342 C14.1450968,18.1839342 14.0180968,18.3639342 14.0050968,18.5499342 M1.14509682,9.17293419 C0.922096822,9.65293419 0.713096822,9.86793419 0.875096822,10.4509342 C0.934096822,10.6609342 0.988096822,10.8679342 0.989096822,11.0909342 C0.991096822,11.2969342 0.870096822,11.5479342 1.03509682,11.7279342 C1.38309682,11.5999342 1.48309682,10.8179342 1.37909682,10.5109342 C1.31909682,10.3309342 1.22009682,10.2309342 1.20609682,10.0149342 C1.19309682,9.81493419 1.35809682,9.58293419 1.09209682,9.44293419 M3.27909682,15.6229342 C2.98509682,15.5129342 2.74609682,15.1629342 2.53609682,14.9439342 C2.30109682,14.6989342 1.97409682,14.4419342 1.80009682,14.1489342 C1.59009682,13.7949342 1.39409682,13.3369342 1.48509682,12.9249342 C1.87109682,12.8349342 1.84709682,13.3319342 1.92509682,13.5729342 C2.01909682,13.8559342 2.19309682,14.0939342 2.35809682,14.3429342 C2.56909682,14.6589342 2.74809682,14.8419342 3.04809682,15.0679342 C3.32709682,15.2779342 3.38209682,15.3719342 3.18509682,15.5779342 M16.1340968,14.5869342 C15.5880968,14.2839342 14.9590968,14.0129342 14.4250968,13.6929342 C14.2290968,13.5749342 14.2540968,13.7119342 14.2050968,13.4399342 C14.1370968,13.0609342 14.4900968,12.4949342 14.6300968,12.1539342 C14.7460968,11.8709342 14.7700968,11.6459342 15.0850968,11.5409342 C15.1620968,11.6829342 15.2390968,11.8429342 15.3280968,11.9849342 C15.4850968,12.2349342 15.5800968,12.2319342 15.7880968,12.3619342 C16.0420968,12.5189342 16.2680968,12.7139342 16.4780968,12.9079342 C16.8040968,13.2079342 16.7200968,13.2319342 16.5600968,13.6169342 C16.4380968,13.9129342 16.5290968,14.4739342 16.1650968,14.6019342 M16.8830968,12.5459342 C16.6740968,12.2659342 15.9380968,11.9229342 15.9530968,11.6189342 C15.9570968,11.5249342 16.1900968,11.2319342 16.2900968,11.2349342 C16.5120968,11.2409342 16.9230968,11.8089342 17.1640968,11.9469342 C17.0790968,12.1779342 16.9120968,12.3609342 16.8240968,12.5909342 M14.2820968,11.4469342 C13.7990968,12.0719342 14.1790968,13.2779342 12.9670968,12.7529342 C12.6610968,12.6199342 12.0870968,12.6759342 12.0050968,12.2769342 C11.9180968,11.8519342 12.3530968,11.4179342 12.5630968,11.1119342 C12.8350968,10.7139342 12.9190968,10.2619342 13.1520968,9.83893419 C13.3780968,9.92493419 13.4640968,9.62593419 13.4820968,9.44893419 C13.3280968,10.2479342 14.3090968,10.6719342 14.6540968,11.2189342 C14.5360968,11.2999342 14.3710968,11.3289342 14.2820968,11.4459342 L14.2820968,11.4469342 Z M11.4920968,11.6969342 C11.2460968,11.7529342 10.5580968,11.5119342 10.3310968,11.3349342 C10.0620968,11.1249342 9.88509682,10.8209342 9.50109682,10.7749342 C9.57309682,10.5789342 9.44509682,10.4599342 9.50909682,10.2579342 C9.65209682,9.79193419 10.1490968,9.33493419 10.3980968,8.90493419 C10.6010968,8.55493419 10.7590968,8.21493419 10.9660968,7.87493419 C11.2630968,8.26893419 11.4400968,8.62693419 11.8830968,8.89493419 C12.1000968,9.02493419 12.5890968,9.36993419 12.7830968,9.31193419 C12.4340968,9.41193419 12.2460968,10.1329342 12.1270968,10.4509342 C12.0300968,10.7109342 11.9070968,10.9619342 11.7960968,11.2229342 C11.7190968,11.4029342 11.7290968,11.8719342 11.4780968,11.7269342 M8.86709682,10.3279342 C8.35709682,9.78093419 7.35809682,9.99593419 6.76709682,9.61693419 C5.97809682,9.10693419 7.07409682,7.68993419 7.33709682,7.15493419 C7.48609682,6.85493419 7.57709682,6.36793419 7.96209682,6.57093419 C8.23909682,6.71593419 8.44509682,7.05093419 8.75609682,7.21693419 C9.02609682,7.36193419 9.26509682,7.47693419 9.55009682,7.55293419 C9.67409682,7.58593419 10.2820968,7.71893419 10.3250968,7.84993419 C10.3470968,7.85293419 10.3630968,7.86293419 10.3740968,7.87993419 C9.37209682,8.12193419 9.34509682,9.67793419 8.80909682,10.3729342 M5.78509682,8.96093419 C5.82809682,9.00793419 5.86309682,9.04293419 5.92509682,9.05893419 C6.12709682,8.15493419 6.31909682,7.12793419 6.98909682,6.44393419 C6.67909682,6.25193419 6.27209682,6.18093419 5.92809682,6.03893419 C5.68809682,5.93993419 5.19709682,5.77493419 4.98809682,5.91493419 C4.95909682,5.91093419 4.93009682,5.87893419 4.90109682,5.88493419 C4.77509682,6.20093419 4.57409682,6.49993419 4.43909682,6.83493419 C4.32109682,7.13093419 4.34309682,7.52193419 4.11909682,7.74893419 C4.45009682,7.93493419 4.73109682,8.09893419 5.01909682,8.33293419 C5.26309682,8.53093419 5.73309682,9.01893419 6.00209682,9.06493419 M5.21309682,5.14193419 C4.99109682,4.74393419 3.97209682,4.95793419 3.75509682,5.24993419 C4.11909682,5.46893419 4.45309682,5.43693419 4.85809682,5.40693419 C5.31409682,5.37293419 5.54409682,5.51393419 5.96209682,5.64893419 C6.46609682,5.81293419 6.34209682,5.51293419 5.96709682,5.31893419 C5.71909682,5.19093419 5.21109682,5.20693419 5.07209682,5.03893419 M3.64009682,7.23093419 C3.74609682,6.84593419 3.94309682,6.42093419 4.13609682,6.04093419 C3.91609682,6.08493419 3.60909682,5.80593419 3.41109682,5.85693419 C3.19109682,5.91493419 3.17509682,6.23293419 3.06509682,6.43893419 C2.91909682,6.71293419 2.75609682,6.77893419 3.01809682,7.00693419 C3.19309682,7.15993419 3.51109682,7.28893419 3.70309682,7.40393419 C3.73709682,7.34693419 3.79409682,7.26693419 3.80609682,7.19993419 M15.3350968,16.4919342 C14.7490968,16.1459342 13.9420968,16.2719342 13.4250968,15.7929342 C13.5680968,15.3899342 13.6780968,14.8909342 13.9150968,14.5329342 C14.3270968,14.8009342 15.2130968,15.4389342 15.7390968,15.3979342 C15.6610968,15.5919342 15.6090968,15.8529342 15.5220968,16.0289342 C15.4470968,16.1839342 15.3060968,16.2699342 15.2420968,16.4479342 M12.8060968,15.2429342 C12.9900968,15.3249342 13.0820968,14.5199342 13.0920968,14.3229342 C13.0750968,14.3419342 13.0710968,14.3749342 13.0520968,14.3969342 C12.7040968,14.3499342 12.4840968,13.9989342 12.2270968,13.7749342 C12.0430968,13.6149342 11.8350968,13.5029342 11.6470968,13.3599342 C11.4520968,13.2129342 11.3810968,13.0829342 11.1370968,12.9949342 C10.9260968,12.9189342 10.5390968,12.9849342 10.4460968,12.7499342 C9.90709682,12.7719342 9.51909682,13.7699342 9.46309682,14.1889342 C9.71909682,14.3279342 10.0750968,14.5719342 10.3700968,14.5849342 C10.3450968,14.4369342 10.8120968,13.9169342 10.9510968,13.8399342 C10.9230968,14.1299342 10.9910968,14.6359342 10.7010968,14.7889342 C10.9820968,15.0879342 11.1810968,14.7629342 11.4470968,14.8819342 C11.4770968,14.7459342 11.5530968,14.6509342 11.6810968,14.7109342 C11.6880968,14.8749342 11.7610968,15.0609342 11.8030968,15.1999342 C12.0080968,15.2199342 12.1520968,15.3659342 12.3500968,15.3939342 C12.5370968,15.4189342 12.8390968,15.4089342 13.0080968,15.3769342 M10.1370968,11.8969342 C9.96509682,11.9269342 9.40409682,11.5999342 9.20009682,11.4489342 C9.05509682,11.3419342 8.96809682,11.2019342 8.81609682,11.1519342 C8.71009682,11.1169342 8.43709682,11.0739342 8.32409682,11.0649342 C7.82809682,11.0219342 7.84309682,11.5539342 7.69409682,11.9649342 C7.58209682,12.2769342 7.35209682,12.8269342 7.11609682,13.0349342 C7.36509682,13.3589342 7.97409682,13.3629342 8.34009682,13.5069342 C8.59509682,13.6069342 8.89309682,13.7069342 9.12409682,13.8409342 C9.18209682,13.3829342 9.24409682,12.7269342 9.58109682,12.3379342 C9.76409682,12.1249342 10.1080968,12.2469342 10.3890968,12.0619342 C10.3300968,12.0299342 10.2360968,11.9699342 10.1850968,11.9559342 M6.34309682,12.8099342 C5.89309682,12.6489342 5.39009682,12.9299342 4.96909682,12.7329342 C4.80909682,12.6589342 4.71309682,12.4969342 4.58909682,12.3659342 C4.44809682,12.2159342 4.29109682,12.1359342 4.18709682,11.9909342 C4.28209682,11.4149342 4.80709682,10.9869342 5.06609682,10.4609342 C5.21609682,10.1569342 5.41109682,9.98593419 5.64409682,9.74793419 C6.02309682,10.0439342 6.18709682,10.4199342 6.68609682,10.5749342 C6.96209682,10.6619342 7.28409682,10.6479342 7.53009682,10.7999342 C7.49209682,11.2119342 7.03609682,11.5729342 6.89709682,11.9699342 C6.80709682,12.2249342 6.76209682,12.6929342 6.43409682,12.7799342 M3.94409682,11.2909342 C3.60009682,11.0509342 3.36509682,10.6989342 3.17209682,10.3389342 C3.01809682,10.0509342 2.88009682,9.83993419 2.79909682,9.52293419 C2.72209682,9.21693419 2.69209682,8.94093419 2.48809682,8.67993419 C2.33509682,8.48493419 1.92709682,8.32593419 1.95109682,8.04593419 C1.95909682,7.95893419 2.32709682,7.46093419 2.39209682,7.44293419 C2.64709682,7.37093419 2.79009682,7.73293419 2.93609682,7.89893419 C3.12509682,8.11193419 3.35309682,8.26593419 3.59909682,8.43093419 C4.00809682,8.70493419 4.43409682,8.99693419 4.82109682,9.31093419 C5.00209682,9.45893419 5.08009682,9.38793419 4.98709682,9.61093419 C4.93509682,9.73493419 4.88509682,9.80993419 4.74309682,9.79693419 C4.62309682,9.94893419 4.51709682,10.1069342 4.40009682,10.2619342 C4.16009682,10.5839342 4.17209682,10.9189342 3.99009682,11.2749342" id="Shape" fill="#FFCC66"></path>
                    <path d="M14.5480968,17.8139342 C14.3820968,17.4149342 13.4930968,17.1229342 13.1350968,16.9519342 C12.8140968,16.7979342 12.5900968,16.7519342 12.2660968,16.6859342 C11.6460968,16.5599342 11.0160968,16.6069342 10.3920968,16.5339342 C9.82409682,16.4679342 10.0400968,16.0439342 10.2790968,15.6609342 C10.4800968,15.3369342 10.5720968,15.4869342 10.8900968,15.6539342 C11.5360968,15.9939342 12.3090968,16.2859342 13.0000968,16.5099342 C13.6460968,16.7199342 14.3260968,16.8429342 14.9500968,17.1259342 C14.8420968,17.3359342 14.6300968,17.7589342 14.5960968,17.8739342" id="Path" fill="#FFCC66"></path>
                    <path d="M10.6030968,17.7689342 C10.1690968,17.7049342 9.76109682,17.5969342 9.34209682,17.5339342 C9.06709682,17.4919342 8.78709682,17.5279342 8.49809682,17.4619342 C8.29409682,17.4159342 7.50109682,17.3159342 7.37709682,17.1759342 C7.15809682,16.9309342 7.50509682,16.5189342 7.62409682,16.3399342 C7.78509682,16.0969342 8.01609682,15.7859342 8.13609682,15.5189342 C8.28309682,15.1909342 7.97509682,14.8649342 8.41809682,14.7709342 C8.60809682,14.7299342 8.98509682,14.8109342 9.17209682,14.8679342 C9.31509682,14.9119342 9.42709682,14.9599342 9.54309682,15.0469342 C9.78109682,15.2239342 9.71309682,15.1039342 9.66709682,15.3589342 C9.57609682,15.8589342 9.16409682,16.3029342 9.22709682,16.8379342 C9.48709682,16.9199342 9.83409682,16.8139342 10.1210968,16.8819342 C10.4110968,16.9509342 10.6420968,16.9019342 10.7910968,17.2019342 C10.7070968,17.3789342 10.5220968,17.4949342 10.5250968,17.6949342 M11.5120968,18.4989342 C10.6590968,18.1549342 9.74209682,18.3509342 8.84407131,18.2529342 C8.83809682,17.5529342 9.89209682,18.1109342 10.2490968,18.1899342 C10.6790968,18.2839342 11.2720968,18.1549342 11.6400968,18.3819342 C11.6200968,18.4089342 11.5910968,18.4259342 11.5710968,18.4539342 M8.21209682,18.0619342 C7.97909682,18.0359342 7.68509682,17.8879342 7.43509682,17.8699342 C7.48309682,17.7589342 7.54909682,17.6619342 7.61909682,17.5619342 C7.88709682,17.6399342 8.16609682,17.7509342 8.42809682,17.8389342 C8.36909682,17.9459342 8.26509682,18.0319342 8.18309682,18.1219342 M6.67209682,17.6939342 C6.01709682,17.3799342 5.30609682,17.2279342 4.72709682,16.8349342 C4.23409682,16.5019342 3.69509682,16.3599342 4.26509682,15.8069342 C4.77309682,16.2089342 5.36709682,16.5089342 5.94509682,16.8569342 C6.32909682,17.0869342 6.81509682,17.2509342 7.10809682,17.5749342 C6.95309682,17.6089342 6.91209682,17.6349342 6.93309682,17.7069342 M6.87109682,16.6429342 C7.10409682,16.3689342 7.14709682,16.0369342 7.35909682,15.7749342 C6.68209682,15.5329342 5.79509682,15.2749342 5.26909682,14.8089342 C5.11509682,14.9489342 4.80909682,15.4609342 4.86909682,15.6489342 C4.92509682,15.8199342 5.33009682,16.0049342 5.48609682,16.0909342 C5.81409682,16.2709342 6.09309682,16.1849342 6.42609682,16.3179342 C6.63709682,16.4019342 6.76209682,16.6879342 7.02109682,16.5679342 M7.62709682,15.3819342 C7.08409682,15.2729342 6.55309682,14.9219342 6.04709682,14.6989342 C5.66309682,14.5289342 5.57009682,14.0489342 5.14909682,14.0419342 C5.31109682,13.8249342 5.94609682,13.3169342 6.24109682,13.3419342 C6.59609682,13.3719342 7.01309682,13.7519342 7.35509682,13.8859342 C7.64009682,13.9959342 7.95709682,14.0329342 8.22509682,14.1889342 C8.01509682,14.3309342 7.82809682,14.4479342 7.70709682,14.6789342 C7.57909682,14.9219342 7.59709682,15.2649342 7.40109682,15.4579342 M1.46709682,9.21693419 C1.63209682,9.10493419 1.72509682,8.91993419 1.84009682,8.77093419 C1.95509682,9.03693419 1.95009682,9.40093419 2.06609682,9.69793419 C2.17509682,9.97293419 2.28209682,10.2439342 2.45809682,10.4959342 C2.72309682,10.8749342 3.54909682,11.1939342 3.60009682,11.7079342 C3.62409682,11.9469342 3.53209682,11.8099342 3.37909682,11.9869342 C3.26309682,12.1199342 3.24609682,12.2469342 3.18209682,12.4019342 C3.08309682,12.6419342 2.95009682,12.9379342 2.79109682,13.1389342 C2.53409682,13.4649342 2.42409682,13.1959342 2.32109682,12.8669342 C2.23609682,12.5949342 2.18009682,12.3529342 2.10709682,12.0789342 C1.98409682,11.6179342 1.93909682,11.1189342 1.79009682,10.6919342 C1.71409682,10.4729342 1.57309682,10.2569342 1.53309682,10.0329342 C1.49509682,9.81893419 1.55309682,9.57393419 1.48609682,9.33593419 M4.53709682,15.3039342 C4.23409682,15.0709342 3.97409682,14.7759342 3.65009682,14.5439342 C3.43509682,14.3909342 3.05509682,14.2569342 3.05309443,13.9639342 C3.05209682,13.7189342 3.36509682,13.4279342 3.48209682,13.2099342 C3.59709682,12.9929342 3.67209682,12.6719342 3.86109682,12.5259342 C4.08509682,13.0079342 4.46709682,13.4999342 4.91409682,13.7919342 C4.42009682,14.2199342 4.91409682,14.9659342 4.52509682,15.4089342" id="Shape" fill="#FFCC66"></path>
                </g>
                <g transform="translate(5.715883, 0.000000)">
                    <path d="M0.911213805,30.246204 C0.911213805,30.246204 0.671213805,27.369204 0.146213805,25.564204 C-0.377786195,23.759204 0.046213805,15.797204 9.3762138,11.960204 C18.7052138,8.124204 17.6262138,8.125204 20.8782138,4.476204 C24.1302138,0.826203995 30.6242138,-2.356796 35.9272138,2.396204 C41.2292138,7.152204 40.9312138,6.962204 40.9312138,6.962204 C40.9312138,6.962204 41.1552138,10.205204 41.5712138,12.734204 C41.9852138,15.261204 39.8942138,21.167204 35.7482138,22.374204 C31.6042138,23.584204 26.2452138,23.720204 23.8882138,25.134204 C21.2282138,26.734204 16.2522138,31.858204 13.3372138,32.728204 C8.3702138,34.210204 5.4592138,31.568204 4.0472138,31.124204 C2.3862138,30.603204 0.911213805,30.246204 0.911213805,30.246204 Z" id="Path" stroke="#000000" stroke-width="3" fill="#000000"></path>
                    <path d="M1.9052138,29.210204 C1.9352138,28.460204 1.5102138,27.425204 1.3972138,26.659204 C1.6112138,26.544204 1.8472138,26.507204 2.0932138,26.566204 C2.0742138,26.580204 2.0112138,26.536204 2.0032138,26.567204 C1.9522138,26.947204 2.0432138,27.380204 2.1212138,27.740204 C2.0782138,27.539204 2.1542138,27.340204 2.3192138,27.200204 C2.3782138,27.406204 2.5692138,27.630204 2.5752138,27.837204 C2.5812138,28.032204 2.3932138,28.378204 2.3372138,28.571204 C2.5042138,28.543204 2.9272138,28.341204 3.0712138,28.376204 C3.3142138,28.437204 3.4072138,28.763204 3.5812138,28.952204 C3.3462138,29.045204 3.0692138,29.098204 2.8272138,29.207204 C3.1112138,29.403204 3.6332138,29.197204 4.0072138,29.228204 C4.2752138,29.250204 4.5622138,29.360204 4.8072138,29.394204 C4.8192138,29.516204 4.9562138,29.773204 5.0642138,29.942204 C4.5832138,29.744204 3.8402138,30.007204 3.3042138,29.957204 C2.7702138,29.907204 2.2582138,29.495204 1.9102138,29.333204 M4.1892138,27.926204 C4.7672138,27.613204 5.9942138,27.294204 6.4962138,27.528204 C7.2022138,27.860204 8.0042138,28.636204 8.3512138,29.308204 C7.6112138,29.460204 6.5912138,29.234204 5.8202138,29.205204 C5.2302138,29.184204 5.3122138,29.170204 4.9772138,28.748204 C4.7552138,28.468204 4.4952138,28.015204 4.2112138,27.850204 M7.4992138,27.542204 C7.8322138,27.608204 8.1812138,27.645204 8.5272138,27.668204 C8.7412138,27.682204 9.2332138,27.568204 9.3942138,27.654204 C9.4782138,27.697204 9.5872138,28.018204 9.6472138,28.111204 C9.7792138,28.317204 9.9072138,28.523204 10.0402138,28.731204 C10.1862138,28.965204 10.4002138,29.176204 10.5102138,29.427204 C10.0372138,29.419204 9.3202138,29.518204 8.9362138,29.231204 C8.3762138,28.811204 7.7512138,27.989204 7.4462138,27.445204 M9.9462138,27.556204 C10.2162138,27.448204 10.5352138,27.266204 10.8162138,27.225204 C11.2732138,27.155204 11.2442138,27.389204 11.4552138,27.673204 C11.5682138,27.540204 11.5552138,27.355204 11.5252138,27.187204 C11.6242138,27.332204 11.7542138,27.507204 11.9372138,27.537204 C12.1722138,27.012204 12.3552138,26.555204 13.0252138,26.374204 C13.7602138,26.174204 13.7162138,27.571204 13.6972138,28.054204 C13.5122138,28.025204 13.3502138,27.890204 13.1812138,27.806204 C13.0232138,27.966204 13.0362138,28.253204 12.8632138,28.406204 C12.7182138,28.534204 12.5162138,28.518204 12.3472138,28.576204 C11.9992138,28.696204 11.7102138,28.741204 11.3612138,28.836204 C10.9042138,28.959204 10.8412138,29.189204 10.5612138,28.727204 C10.3652138,28.407204 10.2112138,27.816204 9.9312138,27.607204 M14.4602138,27.842204 C14.8072138,27.614204 15.3942138,27.019204 15.2242138,26.665204 C15.1372138,26.482204 14.8612138,26.233204 14.7432138,26.038204 C14.6302138,25.850204 14.6082138,25.704204 14.3442138,25.637204 C14.0542138,26.095204 14.2052138,26.324204 14.2862138,26.817204 C14.3342138,27.103204 14.2432138,27.380204 14.1842138,27.650204 C14.3552138,27.624204 14.5202138,27.680204 14.6442138,27.783204 M15.1292138,25.234204 C15.4712138,24.781204 16.0872138,24.584204 16.3762138,24.195204 C16.5492138,23.961204 16.5022138,23.609204 16.8202138,23.827204 C17.0722138,23.999204 17.2582138,24.624204 17.2062138,24.904204 C17.0932138,24.880204 16.9562138,24.866204 16.8382138,24.867204 C16.8432138,24.999204 16.8382138,25.133204 16.8062138,25.257204 C16.7622138,25.223204 16.6992138,25.212204 16.6572138,25.180204 C16.5132138,25.407204 16.5942138,25.716204 16.4172138,25.976204 C16.2712138,26.188204 16.0142138,26.320204 15.8402138,26.501204 C15.5202138,26.279204 15.4272138,25.427204 14.9152138,25.396204 M17.6792138,24.349204 C17.8242138,24.079204 18.1182138,23.791204 18.3212138,23.534204 C18.5242138,23.277204 18.6872138,22.847204 18.9442138,22.662204 C18.7912138,22.349204 18.6612138,21.867204 18.3762138,21.727204 C18.0172138,22.195204 17.6842138,22.757204 17.2712138,23.153204 C17.3112138,23.149204 17.2982138,23.153204 17.3402138,23.121204 C17.4652138,23.304204 17.6652138,23.417204 17.7782138,23.611204 C17.6882138,23.721204 17.6202138,23.861204 17.5712138,23.984204 C17.4422138,23.856204 17.2812138,23.743204 17.1192138,23.666204 C17.3132138,23.933204 17.4602138,24.143204 17.5302138,24.474204 M5.7342138,30.134204 C5.8672138,30.414204 6.7302138,30.751204 7.0702138,30.806204 C7.2902138,30.841204 7.3832138,30.783204 7.6002138,30.762204 C7.7482138,30.746204 7.9362138,30.790204 8.0762138,30.751204 C7.9202138,30.369204 5.9502138,29.804204 5.6682138,30.171204 M8.3902138,30.833204 C8.4832138,31.070204 8.3142138,31.323204 8.4012138,31.537204 C8.9172138,31.357204 11.0182138,33.038204 10.8842138,31.705204 C10.8282138,31.145204 9.8412138,31.210204 9.3262138,31.107204 C8.9402138,31.029204 8.5562138,30.963204 8.2042138,30.810204 M8.4242138,30.350204 C8.5582138,30.292204 9.0592138,30.187204 9.2142138,30.203204 C9.4702138,30.231204 9.7072138,30.557204 9.8952138,30.749204 C9.2592138,30.854204 8.7212138,30.553204 8.1852138,30.232204 M9.9342138,29.708204 C10.4942138,30.076204 10.8282138,31.133204 11.5642138,31.089204 C11.9522138,31.066204 12.5192138,30.785204 12.9292138,30.694204 C13.3072138,30.610204 13.7012138,30.494204 14.0692138,30.434204 C14.1092138,29.911204 13.6392138,29.315204 13.3922138,28.850204 C12.8132138,29.173204 12.0032138,29.064204 11.4432138,29.387204 C11.4252138,29.405204 11.4152138,29.425204 11.4122138,29.450204 C11.5882138,29.621204 11.6892138,29.852204 11.8172138,30.067204 C11.3752138,29.792204 10.6772138,29.258204 10.5502138,29.977204 C10.3552138,29.916204 10.1452138,29.907204 9.9422138,29.953204 M13.9572138,28.636204 C14.0022138,29.109204 14.6422138,29.513204 14.7912138,29.996204 C15.1432138,29.775204 15.4112138,29.512204 15.7832138,29.305204 C15.7392138,29.013204 15.2332138,28.250204 14.9432138,28.129204 C14.5672138,27.972204 14.0802138,28.517204 13.7452138,28.707204 M11.2772138,31.554204 C11.9222138,31.675204 12.4072138,31.375204 12.9772138,31.180204 C13.3652138,31.046204 13.9072138,31.137204 14.2042138,30.786204 C15.0042138,31.956204 13.6752138,31.556204 13.0042138,31.759204 C12.6592138,31.865204 12.4702138,32.031204 12.0942138,32.020204 C11.8282138,32.013204 11.5072138,31.827204 11.3212138,32.058204 C11.2612138,31.950204 11.2292138,31.805204 11.2422138,31.669204 M14.9192138,30.527204 C15.2512138,30.339204 15.5832138,30.135204 15.8962138,29.940204 C16.2602138,29.714204 16.5312138,29.393204 16.8762138,29.183204 C17.5362138,28.781204 18.2482138,28.205204 18.9412138,27.874204 C18.6282138,28.394204 18.0642138,28.748204 17.6212138,29.166204 C17.2852138,29.482204 16.9752138,29.826204 16.5592138,30.032204 C15.9992138,30.307204 15.5322138,30.698204 14.9392138,30.995204 C14.8642138,30.855204 14.8332138,30.705204 14.7842138,30.555204 M16.1392138,28.673204 C16.7032138,28.387204 17.2092138,27.923204 17.7672138,27.613204 C17.9972138,27.485204 18.6532138,27.409204 18.7942138,27.237204 C18.9112138,27.091204 18.8912138,26.260204 18.8932138,25.997204 C18.8952138,25.704204 18.6122138,25.247204 18.7082138,25.050204 C18.1982138,25.435204 17.5742138,25.960204 16.9362138,26.143204 C16.9642138,26.429204 17.2052138,26.618204 17.2542138,26.923204 C17.2202138,26.949204 17.1972138,26.957204 17.1612138,26.990204 C17.2362138,27.070204 17.2812138,27.225204 17.3662138,27.297204 C17.0492138,27.533204 16.7402138,27.793204 16.4292138,28.017204 C16.2972138,27.679204 16.0612138,27.434204 15.8292138,27.152204 C15.7112138,27.266204 15.2492138,27.560204 15.2322138,27.712204 C15.2042138,27.948204 15.7752138,28.464204 15.8692138,28.729204 M19.2212138,26.651204 C19.5272138,26.723204 19.2662138,25.876204 19.2702138,25.673204 C19.2752138,25.289204 19.2952138,24.793204 19.5502138,24.468204 C19.7952138,24.158204 20.5792138,23.897204 20.9352138,23.802204 C21.0442138,23.772204 21.6222138,23.546204 21.6982138,23.566204 C21.9102138,23.623204 21.9862138,24.170204 22.0022138,24.361204 C22.0272138,24.650204 22.0732138,25.206204 21.9292138,25.461204 C21.4692138,25.226204 20.7882138,25.744204 20.4062138,25.986204 C20.1332138,26.159204 19.4432138,26.372204 19.2982138,26.608204 M19.4392138,27.306204 C19.8022138,26.896204 20.1732138,26.403204 20.6892138,26.161204 C20.6002138,26.361204 20.6532138,26.587204 20.8112138,26.721204 C20.3362138,27.025204 19.9532138,27.371204 19.5332138,27.733204 C19.5592138,27.587204 19.5332138,27.427204 19.4392138,27.306204 M28.4432138,20.982204 C28.7192138,21.399204 28.7772138,21.858204 28.8282138,22.315204 C27.6182138,22.605204 26.0882138,22.585204 24.9172138,23.106204 C24.3552138,23.356204 23.8262138,23.673204 23.2922138,23.973204 C22.8092138,24.245204 21.9852138,24.466204 22.5372138,25.120204 C22.7712138,24.904204 23.0932138,24.743204 23.3392138,24.530204 C23.6342138,24.278204 23.8542138,24.004204 24.2212138,23.840204 C24.7072138,23.624204 25.2572138,23.512204 25.7752138,23.366204 C26.3502138,23.204204 26.9082138,22.990204 27.5002138,22.970204 C28.0102138,22.952204 28.4602138,22.946204 28.9432138,22.880204 C29.0472138,22.454204 29.0532138,21.246204 28.5252138,21.130204 M17.8212138,25.054204 C18.1872138,25.007204 18.8472138,24.571204 19.1502138,24.301204 C19.0902138,24.056204 19.0232138,23.439204 19.1472138,23.239204 C18.8292138,23.531204 18.6402138,23.952204 18.3632138,24.252204 C18.1482138,24.485204 17.8912138,24.684204 17.7212138,24.965204 M18.5972138,20.534204 C18.2972138,21.078204 19.4802138,21.722204 19.3192138,22.348204 C19.9392138,21.572204 20.7942138,21.584204 21.5622138,21.108204 C21.5262138,21.080204 21.4752138,21.052204 21.4322138,21.031204 C21.4942138,20.417204 20.9862138,19.624204 20.6772138,19.073204 C20.4472138,18.663204 20.2082138,18.235204 19.9652138,17.781204 C20.0882138,18.164204 19.9732138,18.609204 20.1132138,19.012204 C20.2202138,19.320204 20.3972138,19.504204 20.2072138,19.825204 C19.9212138,20.305204 19.0192138,20.494204 18.5892138,20.879204 M21.6192138,19.030204 C21.7332138,19.618204 22.1282138,20.218204 22.2992138,20.790204 C23.1242138,20.688204 24.0412138,20.485204 24.8522138,20.511204 C24.7922138,19.678204 24.0122138,18.851204 23.6212138,18.117204 C23.4292138,18.437204 23.5692138,19.149204 23.3412138,19.389204 C23.0002138,19.749204 22.6042138,18.988204 22.1302138,19.565204 C22.0012138,19.385204 21.7322138,19.017204 21.5322138,19.322204 M24.5862138,18.142204 C24.6562138,18.682204 25.2482138,19.154204 25.5172138,19.621204 C25.6812138,19.905204 25.7712138,20.165204 25.8832138,20.457204 C26.1792138,20.218204 27.0692138,20.310204 27.5002138,20.284204 C27.7022138,20.271204 28.3512138,20.368204 28.4922138,20.286204 C29.0982138,19.934204 27.6752138,18.327204 27.5242138,17.918204 C27.3932138,17.564204 27.5892138,17.264204 27.1612138,17.180204 C26.6452138,17.077204 26.4112138,17.484204 26.4692138,17.898204 C26.4992138,18.106204 26.6892138,18.148204 26.5592138,18.345204 C26.4762138,18.472204 26.1392138,18.535204 26.0042138,18.524204 C25.5312138,18.487204 25.5872138,18.313204 25.2902138,18.231204 C24.6572138,18.061204 24.5762138,17.987204 24.5862138,18.141204 M19.8842138,23.360204 C19.9152138,23.143204 20.0302138,22.893204 20.0042138,22.668204 C20.3012138,22.461204 20.6942138,22.421204 21.0192138,22.274204 C21.2712138,22.159204 21.5322138,21.874204 21.7992138,21.860204 C21.7612138,22.290204 22.0312138,22.760204 22.0892138,23.172204 C21.6872138,23.141204 21.3292138,22.935204 20.9202138,22.970204 C20.5292138,23.006204 20.0432138,23.188204 19.6902138,23.374204" id="Shape" fill="#FFCC66"></path>
                    <path d="M22.5872138,21.647204 C22.5002138,22.190204 23.0512138,22.808204 22.9332138,23.303204 C23.5142138,22.783204 24.3202138,22.465204 25.0652138,22.211204 C25.6892138,21.997204 26.3762138,22.083204 26.9892138,21.987204 C26.8492138,21.697204 26.6872138,21.152204 26.4162138,21.002204 C26.4262138,20.922204 26.3942138,20.886204 26.3852138,20.834204 C26.0462138,20.986204 25.5772138,20.964204 25.2182138,20.967204 C25.2852138,21.189204 25.3322138,21.476204 25.2442138,21.703204 C25.0202138,21.647204 24.6582138,21.782204 24.4312138,21.867204 C24.5672138,21.556204 24.4732138,20.941204 24.0252138,21.331204 C24.1662138,21.681204 24.2662138,21.851204 24.1552138,22.208204 C24.0722138,22.061204 23.9172138,21.991204 23.7432138,22.010204 C23.7492138,22.064204 23.7232138,22.130204 23.7452138,22.204204 C23.7202138,22.220204 23.6182138,22.264204 23.6052138,22.281204 C23.1572138,21.938204 22.9612138,21.440204 22.2992138,21.761204 M27.7522138,20.737204 C27.8302138,20.933204 28.4282138,21.637204 28.3972138,21.786204 C28.3502138,22.008204 27.7312138,21.934204 27.4872138,21.947204 C27.2522138,21.641204 27.3252138,21.149204 27.0442138,20.906204 C27.2312138,20.911204 27.4182138,20.908204 27.6042138,20.918204 M3.6412138,27.530204 C3.0682138,26.605204 4.4972138,25.862204 5.2462138,25.664204 C5.4562138,25.906204 5.5282138,26.055204 5.6812138,26.334204 C5.7852138,26.526204 5.9952138,26.885204 6.2012138,26.911204 C5.3712138,26.775204 4.4272138,27.302204 3.6412138,27.531204 M8.7192138,26.912204 C8.0222138,27.111204 7.2572138,26.862204 6.5552138,26.803204 C6.4992138,26.395204 5.9712138,25.855204 5.7012138,25.555204 C5.9342138,25.402204 6.3582138,25.080204 6.6312138,25.069204 C6.9912138,25.054204 7.0232138,25.312204 7.2102138,25.573204 C7.4362138,25.888204 7.6622138,25.981204 7.9882138,26.146204 C8.2592138,26.283204 8.6132138,26.476204 8.5652138,26.836204 C8.4752138,26.874204 8.3672138,26.923204 8.2712138,26.921204 M7.6712138,24.778204 C8.0552138,24.708204 8.6672138,24.430204 9.0352138,24.210204 C9.3592138,24.020204 9.5772138,23.636204 9.8992138,23.485204 C10.2812138,23.884204 10.6152138,24.350204 10.9112138,24.820204 C11.0472138,25.034204 11.3632138,25.340204 11.4162138,25.538204 C10.8712138,25.683204 10.3632138,25.996204 9.8732138,26.266204 C9.5922138,26.421204 8.7922138,26.307204 8.7062138,26.432204 C8.6902138,26.430204 8.8372138,26.474204 8.8192138,26.464204 C8.8352138,25.735204 7.9842138,25.057204 7.4622138,24.944204 M10.7692138,23.232204 C11.2652138,23.537204 11.8062138,24.422204 12.1412138,24.935204 C12.2642138,24.560204 13.1962138,23.989204 13.5832138,23.783204 C13.2712138,23.253204 12.9412138,22.557204 12.4992138,22.122204 C11.9922138,22.369204 11.1942138,22.695204 10.9222138,23.145204 M12.9362138,21.722204 C13.1652138,22.275204 13.8242138,22.871204 14.0482138,23.425204 C14.4502138,22.791204 15.8572138,22.530204 15.9902138,21.795204 C16.0532138,21.450204 15.6842138,20.940204 15.5082138,20.667204 C15.1682138,20.141204 14.7392138,19.842204 14.1582138,20.114204 C14.1732138,19.991204 14.1182138,19.808204 13.9532138,19.798204 C13.7232138,19.785204 13.5802138,20.320204 13.5252138,20.468204 C13.3402138,20.967204 13.2372138,21.451204 12.9212138,21.876204 M12.6292138,25.200204 C12.9372138,24.852204 13.4392138,24.640204 13.6792138,24.227204 C13.8202138,24.439204 14.0832138,24.765204 14.0442138,25.037204 C13.9882138,25.419204 13.1512138,25.611204 12.7702138,25.795204 C12.6242138,25.579204 12.4682138,25.398204 12.3942138,25.140204 M11.5852138,25.934204 C11.1572138,26.083204 10.1882138,26.414204 9.7952138,26.772204 C9.7212138,26.764204 9.6352138,26.790204 9.5652138,26.785204 C9.5772138,27.490204 10.5322138,26.643204 10.7302138,26.558204 C10.9722138,26.454204 11.3942138,26.513204 11.6062138,26.398204 C11.8832138,26.247204 11.8472138,25.962204 11.4462138,25.866204 M14.5292138,23.842204 C15.1092138,23.552204 15.3242138,22.922204 15.7652138,22.569204 C15.9652138,23.015204 16.0692138,23.179204 15.7702138,23.546204 C15.5162138,23.856204 15.1162138,24.031204 14.8622138,24.330204 C14.6842138,24.169204 14.5022138,23.949204 14.5042138,23.710204 M15.4252138,18.914204 C15.4002138,19.294204 15.7552138,19.994204 15.9262138,20.431204 C16.0222138,20.677204 16.1292138,21.384204 16.3412138,21.455204 C16.2402138,21.059204 16.7762138,20.471204 17.1182138,20.331204 C17.6102138,20.129204 18.1002138,20.054204 18.5192138,19.696204 C18.2832138,19.322204 18.2662138,18.873204 18.0372138,18.466204 C17.8812138,18.190204 17.7392138,17.904204 17.6392138,17.582204 C17.1532138,17.622204 16.6342138,18.212204 16.2272138,18.460204 C15.9992138,18.599204 15.3072138,18.843204 15.2962138,19.131204 M27.9792138,17.207204 C28.4332138,17.032204 28.9222138,18.951204 29.0862138,19.356204 C29.2092138,19.660204 29.2362138,20.002204 29.5562138,20.013204 C29.9322138,20.025204 30.5742138,19.581204 30.9642138,19.457204 C31.2292138,19.372204 31.8592138,19.447204 32.0242138,19.310204 C32.3372138,19.050204 31.8822138,18.523204 31.7372138,18.264204 C31.3262138,17.533204 30.9492138,16.554204 30.3842138,15.960204 C30.1322138,16.086204 29.8272138,16.192204 29.8022138,16.427204 C29.7722138,16.709204 30.0942138,16.871204 29.9722138,17.197204 C29.8102138,17.197204 29.7362138,17.216204 29.5802138,17.272204 C29.5172138,17.154204 29.4002138,16.968204 29.2632138,16.922204 C29.0212138,16.836204 29.0252138,16.992204 28.9132138,17.012204 C28.6312138,17.059204 28.2402138,17.002204 28.0202138,17.282204 M32.5302138,18.782204 C32.3562138,17.747204 31.3382138,16.898204 31.0772138,15.912204 C31.7292138,15.562204 32.1102138,14.877204 32.7102138,14.452204 C33.1212138,14.162204 33.6142138,14.128204 34.1022138,14.008204 C33.7482138,14.248204 33.7772138,14.793204 33.7132138,15.162204 C33.6032138,15.795204 33.5422138,16.094204 33.6972138,16.745204 C33.8022138,17.188204 33.9962138,17.777204 33.5822138,18.143204 C33.2592138,18.429204 32.7042138,18.369204 32.4302138,18.693204 M34.5502138,17.014204 C35.1132138,16.926204 34.7512138,15.237204 34.8562138,14.788204 C34.9342138,14.452204 34.9822138,14.031204 35.0872138,13.698204 C35.2152138,13.294204 35.4822138,13.293204 35.8272138,13.028204 C36.2332138,12.717204 36.2972138,12.551204 36.6272138,13.022204 C36.8302138,13.311204 37.0682138,13.799204 37.1582138,14.142204 C37.2212138,14.382204 37.1912138,14.732204 37.2232138,14.977204 C37.3002138,15.564204 36.9592138,15.657204 36.4952138,16.005204 C36.2192138,16.211204 35.9912138,16.407204 35.6682138,16.569204 C35.3812138,16.714204 35.0082138,16.785204 34.7832138,16.980204 M37.1642138,12.190204 C37.6462138,12.153204 38.2462138,11.356204 38.4902138,10.969204 C38.5882138,10.813204 38.5542138,10.574204 38.7642138,10.547204 C39.0502138,10.510204 39.1962138,11.137204 39.2662138,11.350204 C39.4922138,12.036204 38.8532138,12.270204 38.6142138,12.920204 C38.4232138,13.439204 38.3642138,13.850204 37.9842138,14.286204 C37.9872138,13.456204 37.2662138,12.940204 37.0672138,12.195204 M40.2112138,10.818204 C40.2672138,10.892204 40.2992138,10.950204 40.3912138,10.967204 C40.3582138,10.693204 40.6412138,10.466204 40.6312138,10.204204 C40.6232138,9.985204 40.3862138,9.748204 40.3842138,9.454204 C40.3842138,9.141204 40.4012138,8.904204 40.3362138,8.607204 C40.2002138,7.987204 39.7792138,7.353204 39.3562138,6.881204 C38.9962138,6.481204 38.6172138,6.083204 38.2372138,5.700204 C37.6812138,5.140204 37.1912138,4.406204 36.4632138,4.042204 C36.5472138,4.378204 36.6362138,4.710204 36.8612138,4.969204 C37.0982138,5.241204 37.4212138,5.376204 37.6552138,5.642204 C38.0782138,6.122204 38.5092138,6.553204 38.7872138,7.140204 C38.4092138,7.070204 37.9842138,7.034204 37.5932138,7.043204 C37.8582138,7.302204 38.0552138,7.738204 38.2692138,8.064204 C38.5272138,7.877204 38.8132138,7.578204 39.0582138,7.868204 C39.4512138,8.335204 38.7932138,8.527204 38.6512138,8.838204 C38.8772138,8.937204 39.0562138,9.146204 39.1922138,9.345204 C39.2932138,9.187204 39.3362138,8.967204 39.3722138,8.779204 C39.3972138,9.247204 39.7222138,9.574204 39.8542138,9.999204 C39.9202138,10.212204 39.8592138,10.400204 39.8902138,10.608204 C39.9642138,11.105204 40.2202138,11.431204 40.5202138,11.798204 C40.7912138,11.171204 40.1492138,10.478204 40.0042138,9.913204 C39.8252138,9.218204 39.9692138,8.402204 39.6942138,7.753204 M18.2122138,17.347204 C18.4612138,17.316204 18.6982138,18.813204 18.7622138,19.121204 C19.1482138,18.929204 19.4522138,18.708204 19.7592138,18.415204 C19.4692138,17.941204 19.5662138,17.362204 19.2312138,16.920204 C19.0352138,16.664204 18.8312138,16.530204 18.7042138,16.192204 C18.5832138,15.866204 18.5182138,15.646204 18.2662138,15.388204 C18.2192138,15.910204 18.6212138,16.974204 18.1322138,17.295204 M1.8432138,25.672204 C1.7562138,24.939204 1.7302138,24.345204 1.9232138,23.583204 C2.0712138,23.003204 2.1132138,22.418204 2.2572138,21.839204 C1.7582138,21.759204 1.8682138,22.254204 1.7982138,22.575204 C1.7192138,22.943204 1.5372138,23.198204 1.4392138,23.563204 C1.2732138,24.182204 0.814213805,25.486204 1.8572138,25.517204 M2.1222138,20.896204 C1.9662138,20.616204 2.8672138,18.817204 3.1102138,18.450204 C3.8502138,18.727204 3.7932138,19.182204 3.5852138,19.833204 C3.3912138,20.443204 2.7972138,20.617204 2.4532138,21.128204 C2.3482138,21.066204 2.1872138,21.010204 2.1052138,20.954204 M3.7072138,17.817204 C3.9412138,17.263204 4.3922138,16.685204 4.7412138,16.184204 C4.9912138,16.576204 5.8092138,17.616204 5.7092138,18.094204 C5.3082138,18.110204 5.2202138,18.019204 5.0462138,17.696204 C4.8662138,17.358204 4.8362138,17.095204 4.6612138,17.572204 C4.5572138,17.859204 4.6662138,18.302204 4.1892138,18.335204 C3.8312138,18.360204 3.8512138,18.024204 3.6112138,17.823204 M3.0072138,27.205204 C2.9612138,26.969204 2.7062138,26.645204 2.5862138,26.433204 C2.3742138,26.063204 2.3902138,25.916204 2.5202138,25.450204 C2.6652138,24.930204 2.7472138,24.487204 2.7282138,23.958204 C2.7182138,23.673204 2.6772138,23.328204 2.7752138,23.058204 C3.2862138,23.834204 3.7442138,24.537204 4.4322138,25.172204 C3.8202138,25.297204 3.1302138,26.332204 2.8162138,26.777204 M3.9582138,23.803204 C4.2952138,23.906204 4.5752138,24.635204 4.8932138,24.923204 C5.2232138,24.736204 5.4852138,24.697204 5.8352138,24.643204 C6.0622138,24.608204 6.2382138,24.651204 6.3912138,24.478204 C6.1772138,24.295204 6.0122138,23.906204 5.8712138,23.651204 C5.7452138,23.426204 5.5992138,22.939204 5.3152138,22.844204 C4.8922138,22.704204 4.7132138,23.227204 4.4832138,23.497204 C4.3102138,23.702204 4.1182138,23.781204 3.9232138,23.920204 M5.8142138,22.371204 C6.3212138,22.884204 6.8042138,23.665204 7.0232138,24.346204 C7.5792138,23.912204 8.9432138,23.665204 8.8772138,22.788204 C8.8422138,22.324204 8.3512138,22.140204 8.0532138,21.794204 C7.7932138,21.493204 7.6112138,20.988204 7.2732138,20.778204 C7.0082138,21.130204 6.8312138,21.515204 6.5912138,21.877204 C6.3832138,22.190204 6.0342138,22.359204 5.8042138,22.619204 M7.8322138,20.507204 C8.2782138,20.061204 8.4352138,19.532204 8.9292138,19.165204 C9.1192138,19.435204 8.9992138,19.880204 9.3752138,20.011204 C9.1872138,19.180204 9.2652138,18.884204 9.8702138,18.249204 C9.9602138,18.651204 10.4252138,19.219204 10.6412138,19.609204 C10.7602138,19.819204 10.9872138,20.000204 11.0942138,20.229204 C11.2362138,20.532204 11.0122138,20.679204 11.2202138,20.934204 C10.7592138,20.949204 10.2002138,21.149204 9.8742138,21.460204 C9.6242138,21.700204 9.5392138,22.047204 9.1802138,22.174204 C8.8942138,21.955204 8.8882138,21.462204 8.6542138,21.163204 C8.3892138,20.824204 8.1042138,20.420204 7.8192138,20.125204 M9.6592138,22.688204 C10.0192138,22.420204 10.3052138,21.972204 10.6772138,21.727204 C11.0442138,21.484204 11.5172138,21.609204 11.7632138,21.169204 C11.8662138,21.377204 11.9452138,21.624204 11.9962138,21.855204 C11.2332138,22.082204 10.3362138,22.771204 9.5842138,22.731204 M11.8492138,20.145204 C12.0212138,19.949204 12.4872138,19.825204 12.7442138,19.700204 C12.7642138,19.703204 12.8942138,19.739204 12.9092138,19.743204 C12.7752138,20.178204 12.7522138,20.965204 12.3752138,21.251204 C12.5092138,21.056204 11.9612138,20.095204 11.8072138,20.072204 M14.5352138,18.492204 C14.1942138,18.844204 13.7072138,19.029204 13.3662138,19.352204 C13.7062138,19.502204 14.2472138,19.458204 14.6262138,19.552204 C14.7422138,19.354204 14.5962138,18.867204 14.5202138,18.644204 M11.1902138,19.690204 C11.1172138,19.030204 10.5022138,18.647204 10.3032138,18.007204 C10.6902138,17.827204 10.8672138,17.154204 11.2072138,16.860204 C11.6822138,16.450204 12.0722138,16.421204 12.6202138,16.170204 C12.9902138,16.705204 13.4852138,17.202204 13.7802138,17.789204 C13.6982138,17.813204 13.6142138,17.919204 13.5302138,17.943204 C13.5902138,18.000204 13.5972138,18.080204 13.6722138,18.130204 C12.7952138,18.097204 11.8522138,18.788204 11.2972138,19.434204 M17.7612138,20.567204 C17.4502138,20.568204 16.7312138,21.180204 16.5702138,21.482204 C16.4372138,21.732204 16.5642138,22.482204 16.7152138,22.802204 C17.1602138,22.335204 17.4662138,21.666204 18.1122138,21.383204 C17.9952138,21.199204 17.9042138,20.903204 17.8272138,20.773204 M15.2892138,16.801204 C15.7332138,16.596204 16.3692138,16.797204 16.3172138,16.137204 C16.2812138,15.689204 15.7782138,15.114204 15.4722138,14.810204 C15.0322138,15.053204 14.8842138,14.974204 14.4302138,14.999204 C13.9372138,15.025204 13.2402138,15.369204 13.3082138,15.924204 C13.3802138,16.511204 14.0412138,17.003204 14.2192138,17.580204 C14.3572138,17.234204 14.9512138,16.959204 15.2892138,16.800204 L15.2892138,16.801204 Z M14.9592138,17.815204 C15.3132138,17.485204 16.0092138,17.365204 16.4692138,17.118204 C16.7072138,17.835204 16.2872138,17.694204 15.7262138,18.014204 C15.2562138,18.284204 14.9892138,18.458204 14.9162138,17.741204 M5.5792138,21.772204 C5.2922138,21.720204 5.0392138,21.332204 4.7872138,21.150204 C4.5672138,20.990204 4.0172138,20.737204 4.0472138,20.394204 C4.0542138,20.314204 4.2822138,20.097204 4.3302138,19.995204 C4.4202138,19.802204 4.4372138,19.607204 4.5042138,19.413204 C4.6242138,19.071204 4.8392138,18.728204 5.1882138,18.929204 C5.3162138,19.003204 5.4342138,19.261204 5.5422138,19.360204 C5.6672138,19.474204 5.8302138,19.556204 5.9552138,19.664204 C6.0732138,19.768204 6.5782138,20.084204 6.6032138,20.216204 C6.6362138,20.392204 6.1872138,20.846204 6.0932138,20.988204 C5.9072138,21.268204 5.6612138,21.553204 5.5242138,21.854204 M3.6352138,23.497204 C3.5372138,23.030204 5.0132138,22.649204 4.8052138,22.024204 C4.6502138,21.558204 3.7752138,21.397204 3.6192138,20.891204 C3.6022138,20.889204 3.5872138,20.884204 3.5712138,20.879204 C3.3672138,21.204204 3.3912138,21.533204 3.2712138,21.794204 C3.1312138,22.104204 2.7042138,22.258204 2.5432138,22.552204 C2.8012138,22.675204 3.0632138,22.742204 3.2552138,22.979204 C3.4032138,23.162204 3.4062138,23.521204 3.6352138,23.497204 M7.1392138,19.632204 C7.7292138,18.969204 8.3862138,18.370204 8.9892138,17.757204 C8.7442138,17.359204 8.5132138,17.134204 8.2152138,16.790204 C8.0092138,16.553204 8.0582138,15.990204 7.6652138,15.940204 C7.3102138,16.270204 7.4382138,16.725204 7.1912138,17.064204 C7.0872138,17.204204 6.8692138,17.254204 6.7522138,17.404204 C6.6262138,17.567204 6.5922138,17.796204 6.5002138,17.985204 C6.3372138,18.325204 5.9642138,18.456204 6.0912138,18.751204 C6.2382138,19.090204 6.8662138,19.281204 7.1532138,19.478204 M5.3642138,15.670204 C5.5952138,15.332204 6.9172138,13.934204 7.3452138,14.167204 C7.9792138,14.511204 6.9512138,14.874204 6.7412138,14.993204 C6.3602138,15.212204 5.8662138,15.613204 5.6942138,16.012204 C5.4422138,16.056204 5.3822138,15.837204 5.2672138,15.676204 M8.2112138,13.584204 C8.6312138,13.525204 10.7072138,11.980204 11.0292138,12.624204 C10.3232138,13.072204 8.9342138,14.014204 8.0832138,13.792204 C8.0712138,13.751204 8.0692138,13.712204 8.0582138,13.670204 M11.7152138,11.955204 C11.8552138,12.049204 11.9262138,12.193204 11.9042138,12.348204 C12.6512138,12.073204 13.2392138,11.591204 13.9132138,11.244204 C13.1022138,11.367204 12.4082138,11.928204 11.6452138,12.188204 M15.4662138,10.674204 C16.5702138,10.522204 17.7042138,9.001204 18.3312138,8.193204 C18.4292138,8.320204 18.6642138,8.736204 18.6212138,8.889204 C18.5462138,9.163204 17.6712138,9.596204 17.4592138,9.760204 C16.9622138,10.144204 16.1392138,10.773204 15.4902138,10.806204 M8.1052138,15.005204 C8.1722138,15.455204 8.6622138,16.092204 8.9832138,16.407204 C9.1532138,16.575204 9.5412138,16.659204 9.5752138,16.897204 C9.8052138,16.120204 10.3362138,15.974204 10.9762138,15.530204 C11.1142138,15.436204 11.5502138,15.226204 11.6012138,15.075204 C11.6752138,14.852204 11.3352138,14.320204 11.2232138,14.117204 C11.1032138,13.900204 10.9712138,13.627204 10.7432138,13.618204 C10.4032138,13.605204 9.7532138,14.130204 9.4232138,14.312204 C8.9752138,14.560204 8.4592138,14.898204 8.1122138,15.195204 M12.5092138,15.155204 C13.2512138,14.590204 13.7712138,13.597204 14.8592138,13.815204 C15.0372138,13.342204 14.6292138,12.950204 14.5152138,12.481204 C14.0432138,12.563204 13.5952138,12.649204 13.1402138,12.725204 C12.6382138,12.807204 11.7052138,12.745204 11.7632138,13.422204 C11.8112138,14.000204 12.5232138,14.432204 12.6642138,15.001204 C12.3442138,14.360204 12.0222138,13.721204 11.6972138,13.084204 M15.9922138,14.559204 C16.3372138,14.455204 17.2172138,14.426204 17.3202138,13.879204 C17.6032138,14.407204 17.6472138,14.705204 17.6762138,15.254204 C17.6962138,15.661204 17.9562138,16.063204 18.0192138,16.464204 C17.7302138,16.552204 17.4472138,16.770204 17.1652138,16.904204 C17.2152138,16.641204 16.9102138,15.869204 16.8012138,15.623204 C16.7132138,15.421204 16.1712138,14.645204 15.9542138,14.581204" id="Shape" fill="#FFCC66"></path>
                    <path d="M15.4212138,13.810204 C15.8352138,13.634204 16.3592138,13.704204 16.7612138,13.439204 C16.4912138,12.704204 16.0352138,11.870204 16.0352138,11.087204 C15.3962138,11.843204 14.5612138,11.436204 13.8852138,11.850204 C14.1972138,11.958204 14.8722138,12.140204 15.0802138,12.395204 C15.2312138,12.582204 15.2272138,12.965204 15.3222138,13.185204 C15.3922138,13.350204 15.5762138,13.611204 15.6122138,13.703204 M29.1672138,20.574204 C29.4702138,21.074204 29.5612138,21.742204 29.6162138,22.317204 C30.1732138,22.247204 30.8022138,22.198204 31.3462138,22.037204 C32.0162138,21.837204 31.8832138,21.434204 31.6762138,20.856204 C31.2472138,19.661204 29.7812138,20.891204 28.8592138,20.650204 M32.2062138,20.082204 C32.6762138,19.900204 33.0442138,19.862204 33.4892138,19.520204 C33.6292138,19.410204 34.1672138,18.685204 34.3042138,18.694204 C34.7372138,18.722204 34.8422138,20.276204 34.9052138,20.590204 C34.2652138,20.503204 33.0552138,21.220204 32.4952138,21.565204 C32.3222138,21.350204 32.3892138,20.971204 32.2992138,20.711204 C32.2092138,20.451204 32.0592138,20.217204 31.9882138,19.961204 M32.0852138,22.192204 C31.9592138,22.356204 31.8892138,22.548204 31.8532138,22.750204 C32.3212138,22.622204 32.7932138,22.480204 33.2652138,22.343204 C33.8892138,22.163204 34.4862138,21.819204 35.0982138,21.660204 C34.9532138,21.522204 34.8622138,21.339204 34.8112138,21.153204 C33.8262138,21.637204 32.7222138,21.694204 31.7562138,22.231204 M35.4302138,20.992204 C35.6802138,21.249204 35.6502138,21.348204 35.9942138,21.259204 C36.2972138,21.181204 36.6352138,20.899204 36.9102138,20.745204 C37.3082138,20.521204 38.3592138,19.975204 38.1222138,19.369204 C37.9492138,18.926204 37.1172138,19.947204 36.8172138,20.155204 C36.4272138,20.423204 35.7372138,20.627204 35.4692138,20.970204 M34.9312138,17.869204 C34.9712138,18.597204 35.2792138,19.319204 35.4152138,19.972204 C35.6242138,19.784204 35.9242138,19.672204 36.1362138,19.477204 C36.4572138,19.187204 36.3932138,19.179204 36.2322138,18.778204 C36.0092138,18.224204 35.8072138,17.637204 35.5942138,17.114204 C35.4242138,17.230204 34.8172138,17.827204 34.8752138,17.949204 M36.4992138,17.084204 C36.7472138,16.682204 37.5622138,16.584204 37.8692138,16.037204 C38.0332138,15.747204 38.1192138,15.504204 38.3122138,15.210204 C38.8332138,15.658204 38.6642138,16.681204 39.0682138,17.287204 C38.5242138,17.565204 38.2012138,17.993204 37.7982138,18.410204 C37.5582138,18.657204 37.2052138,18.807204 36.9412138,19.018204 C36.7452138,18.694204 36.7272138,18.184204 36.5432138,17.808204 C36.4072138,17.528204 36.2512138,17.265204 36.2232138,16.949204 M38.4612138,18.608204 C38.4852138,18.834204 38.6572138,18.978204 38.7772138,19.155204 C39.2342138,18.389204 39.4942138,17.715204 39.7872138,16.887204 C39.4312138,17.067204 39.2352138,17.527204 39.0042138,17.825204 C38.7842138,18.107204 38.3812138,18.337204 38.3082138,18.695204 M38.5832138,14.358204 C38.9312138,14.265204 39.1432138,13.450204 39.3382138,13.108204 C39.5442138,12.744204 39.8232138,12.434204 40.0762138,12.114204 C40.2102138,12.411204 40.3752138,12.964204 40.3982138,13.291204 C40.4282138,13.721204 40.1282138,13.861204 39.9882138,14.257204 C39.8482138,14.648204 39.9362138,15.083204 39.8162138,15.477204 C39.7062138,15.837204 39.3092138,15.920204 39.2172138,16.231204 C39.2492138,15.951204 38.6572138,14.299204 38.5042138,14.305204 M40.4532138,14.378204 C40.5292138,14.399204 40.8032138,14.522204 40.9022138,14.651204 C40.5582138,14.939204 40.3272138,16.006204 40.1682138,16.463204 C40.0292138,16.413204 39.9192138,16.309204 39.8642138,16.175204 C40.0522138,15.940204 40.2712138,15.570204 40.3642138,15.291204 C40.4762138,14.951204 40.3012138,14.690204 40.3562138,14.383204 M16.7692138,10.670204 C16.9092138,10.473204 17.4892138,10.354204 17.7452138,10.170204 C18.0352138,9.960204 18.2822138,9.707204 18.5782138,9.508204 C18.8522138,9.324204 19.0482138,9.245204 19.2252138,8.962204 C19.3952138,8.687204 19.4712138,8.338204 19.7512138,8.126204 C19.9802138,8.296204 20.3692138,8.900204 20.3122138,9.216204 C20.2482138,9.564204 19.6322138,9.823204 19.3572138,9.995204 C18.8982138,10.281204 18.4472138,10.587204 17.9592138,10.828204 C17.6642138,10.974204 17.1922138,11.118204 16.9892138,11.316204 C17.1082138,11.099204 17.0132138,10.835204 16.8292138,10.686204 M36.0042138,4.138204 C35.6682138,3.556204 35.5952138,3.180204 34.8692138,2.924204 C34.6092138,2.831204 34.3532138,2.736204 34.1192138,2.575204 C33.9022138,2.425204 33.7292138,2.116204 33.4212138,2.157204 C33.3002138,2.612204 34.0422138,3.289204 34.4372138,3.405204 C34.6702138,3.473204 34.8472138,3.444204 35.0812138,3.587204 C35.2992138,3.720204 35.4212138,4.061204 35.7612138,3.886204 M27.7222138,1.647204 C28.0512138,1.420204 28.5902138,1.427204 28.9722138,1.369204 C29.3992138,1.303204 29.9072138,1.150204 30.3382138,1.183204 C30.8622138,1.223204 31.4822138,1.354204 31.8442138,1.750204 C31.6572138,2.218204 31.1552138,1.829204 30.8472138,1.735204 C30.4842138,1.625204 30.1082138,1.633204 29.7292138,1.624204 C29.2452138,1.612204 28.9232138,1.666204 28.4682138,1.812204 C28.0452138,1.949204 27.9082138,1.938204 27.8362138,1.582204 M19.4032138,15.802204 C20.1182138,15.455204 20.8602138,14.996204 21.5832138,14.675204 C21.8502138,14.557204 21.6902138,14.482204 22.0082138,14.630204 C22.4532138,14.836204 22.7852138,15.618204 23.0382138,16.013204 C23.2482138,16.342204 23.4642138,16.530204 23.3442138,16.936204 C23.1402138,16.912204 22.9162138,16.876204 22.7032138,16.865204 C22.3282138,16.845204 22.2622138,16.947204 21.9732138,17.069204 C21.6252138,17.219204 21.2572138,17.311204 20.9012138,17.389204 C20.3512138,17.509204 20.3862138,17.404204 20.1012138,16.956204 C19.8832138,16.612204 19.2312138,16.296204 19.3642138,15.824204 M20.9822138,18.075204 C21.4262138,18.062204 22.3222138,17.545204 22.6282138,17.783204 C22.7232138,17.856204 22.8582138,18.313204 22.7812138,18.416204 C22.6132138,18.642204 21.7212138,18.656204 21.4012138,18.806204 C21.2222138,18.548204 21.1532138,18.241204 20.9792138,17.980204 M24.0292138,16.167204 C23.7292138,15.207204 22.1962138,14.721204 23.6292138,13.843204 C23.9922138,13.620204 24.3532138,12.982204 24.8292138,13.188204 C25.3362138,13.408204 25.4692138,14.178204 25.6352138,14.622204 C25.8512138,15.196204 26.2612138,15.614204 26.5322138,16.166204 C26.2772138,16.338204 26.5252138,16.646204 26.6962138,16.795204 C25.9762138,16.051204 24.8172138,16.763204 23.9962138,16.722204 C23.9962138,16.540204 24.0862138,16.347204 24.0302138,16.167204 L24.0292138,16.167204 Z M25.8082138,13.077204 C25.9302138,12.779204 26.6852138,12.239204 27.0342138,12.132204 C27.4502138,12.005204 27.8972138,12.042204 28.2242138,11.676204 C28.3762138,11.894204 28.5942138,11.849204 28.7592138,12.063204 C29.1392138,12.553204 29.2532138,13.404204 29.5182138,13.978204 C29.7342138,14.446204 29.9722138,14.858204 30.1762138,15.323204 C29.5492138,15.345204 29.0462138,15.267204 28.4432138,15.533204 C28.1492138,15.664204 27.4312138,15.922204 27.3502138,16.166204 C27.5002138,15.730204 26.8872138,15.006204 26.6432138,14.650204 C26.4432138,14.360204 26.2712138,14.047204 26.0802138,13.740204 C25.9482138,13.528204 25.4532138,13.196204 25.7872138,13.041204 M29.1532138,11.343204 C30.0972138,11.212204 30.6032138,10.013204 31.4302138,9.675204 C32.5382138,9.224204 33.2152138,11.402204 33.5802138,12.068204 C33.7832138,12.441204 34.2252138,12.893204 33.7312138,13.146204 C33.3772138,13.328204 32.8782138,13.298204 32.4772138,13.500204 C32.1282138,13.676204 31.8342138,13.840204 31.5472138,14.083204 C31.4222138,14.188204 30.8392138,14.723204 30.6712138,14.673204 C30.6522138,14.693204 30.6302138,14.703204 30.6042138,14.701204 C31.0842138,13.481204 29.4822138,12.316204 29.1502138,11.248204 M32.8322138,9.130204 C32.7522138,9.140204 32.6912138,9.150204 32.6292138,9.204204 C33.4232138,10.076204 34.3532138,11.027204 34.5752138,12.225204 C35.0032138,12.041204 35.3752138,11.670204 35.7752138,11.415204 C36.0522138,11.238204 36.5842138,10.846204 36.5902138,10.527204 C36.6162138,10.499204 36.6702138,10.492204 36.6862138,10.458204 C36.4472138,10.095204 36.2832138,9.668204 36.0322138,9.281204 C35.8112138,8.941204 35.3872138,8.678204 35.3142138,8.281204 C34.8792138,8.489204 34.5012138,8.661204 34.0472138,8.791204 C33.6632138,8.901204 32.8112138,9.034204 32.5652138,9.281204 M37.2312138,11.325204 C37.8082138,11.385204 38.3312138,10.166204 38.1852138,9.728204 C37.6912138,9.948204 37.4792138,10.318204 37.2152138,10.762204 C36.9172138,11.262204 36.6022138,11.399204 36.1552138,11.735204 C35.6152138,12.141204 36.0192138,12.230204 36.4952138,11.982204 C36.8112138,11.817204 37.1652138,11.276204 37.4422138,11.255204 M36.2042138,8.159204 C36.5272138,8.550204 36.8272138,9.067204 37.0812138,9.546204 C37.1962138,9.285204 37.7112138,9.169204 37.8032138,8.925204 C37.9042138,8.653204 37.5842138,8.405204 37.4502138,8.139204 C37.2712138,7.787204 37.3232138,7.569204 36.8932138,7.675204 C36.6052138,7.745204 36.2382138,7.982204 35.9772138,8.099204 C36.0122138,8.175204 36.0542138,8.293204 36.1152138,8.355204 M18.0012138,13.576204 C18.7912138,13.219204 19.2482138,12.286204 20.1262138,12.096204 C20.4422138,12.540204 20.8822138,13.020204 21.0812138,13.528204 C20.5012138,13.763204 19.1872138,14.219204 18.8462138,14.798204 C18.7012138,14.574204 18.4672138,14.329204 18.3462138,14.110204 C18.2402138,13.918204 18.2542138,13.708204 18.1162138,13.511204 M21.1522138,11.854204 C20.9322138,11.986204 21.7042138,12.671204 21.9022138,12.825204 C21.8952138,12.794204 21.8622138,12.765204 21.8542138,12.730204 C22.1582138,12.401204 22.6842138,12.429204 23.1042138,12.324204 C23.4062138,12.249204 23.6742138,12.114204 23.9622138,12.022204 C24.2572138,11.927204 24.4452138,11.948204 24.7152138,11.758204 C24.9492138,11.594204 25.1632138,11.143204 25.4752138,11.217204 C25.8472138,10.639204 25.0892138,9.505204 24.6952138,9.141204 C24.3622138,9.307204 23.8482138,9.498204 23.6172138,9.796204 C23.7912138,9.878204 23.9922138,10.745204 23.9702138,10.946204 C23.6872138,10.705204 23.1102138,10.406204 23.1652138,9.992204 C22.6472138,10.067204 22.8402138,10.512204 22.5222138,10.702204 C22.6412138,10.832204 22.6852138,10.982204 22.5292138,11.072204 C22.3532138,10.959204 22.1052138,10.898204 21.9292138,10.840204 C21.7582138,11.038204 21.5012138,11.082204 21.3272138,11.268204 C21.1642138,11.445204 20.9552138,11.768204 20.8642138,11.967204 M26.5902138,11.520204 C26.6842138,11.317204 27.4362138,10.971204 27.7432138,10.870204 C27.9602138,10.797204 28.1712138,10.808204 28.3332138,10.687204 C28.4472138,10.602204 28.6912138,10.349204 28.7832138,10.238204 C29.1902138,9.752204 28.6262138,9.378204 28.3062138,8.924204 C28.0622138,8.577204 27.6572138,7.936204 27.6132138,7.538204 C27.0932138,7.561204 26.6442138,8.192204 26.2272138,8.468204 C25.9362138,8.661204 25.6132138,8.899204 25.3052138,9.041204 C25.7402138,9.436204 26.3782138,9.982204 26.5382138,10.617204 C26.6252138,10.963204 26.2482138,11.233204 26.2352138,11.661204 C26.3112138,11.622204 26.4422138,11.568204 26.4942138,11.526204 M28.4132138,6.897204 C28.9112138,6.546204 28.9852138,5.817204 29.4992138,5.521204 C29.6912138,5.409204 29.9312138,5.428204 30.1582138,5.394204 C30.4182138,5.356204 30.6172138,5.252204 30.8432138,5.249204 C31.3732138,5.769204 31.4372138,6.629204 31.7952138,7.284204 C32.0022138,7.664204 32.0382138,7.990204 32.1162138,8.408204 C31.5312138,8.587204 31.0182138,8.483204 30.4912138,8.889204 C30.2002138,9.114204 29.9792138,9.459204 29.6412138,9.604204 C29.2392138,9.264204 29.1962138,8.524204 28.8842138,8.089204 C28.6842138,7.809204 28.2282138,7.419204 28.3792138,7.015204 M31.7512138,5.508204 C32.2522138,5.324204 32.7912138,5.338204 33.3072138,5.398204 C33.7202138,5.448204 34.0402138,5.459204 34.4302138,5.607204 C34.8062138,5.750204 35.1162138,5.920204 35.5372138,5.898204 C35.8522138,5.882204 36.3152138,5.572204 36.5892138,5.802204 C36.6752138,5.875204 36.9242138,6.622204 36.8962138,6.704204 C36.7852138,7.021204 36.3032138,6.906204 36.0232138,6.937204 C35.6632138,6.978204 35.3352138,7.103204 34.9832138,7.239204 C34.4002138,7.465204 33.7832138,7.695204 33.1722138,7.869204 C32.8862138,7.949204 32.9042138,8.083204 32.7382138,7.822204 C32.6472138,7.677204 32.6062138,7.570204 32.7232138,7.432204 C32.6532138,7.195204 32.5662138,6.972204 32.4892138,6.735204 C32.3302138,6.249204 31.9712138,6.017204 31.7332138,5.567204" id="Shape" fill="#FFCC66"></path>
                    <path d="M17.1992138,11.790204 C17.7352138,11.909204 18.6902138,11.196204 19.1312138,10.947204 C19.5252138,10.726204 19.7372138,10.527204 20.0432138,10.237204 C20.6282138,9.682204 21.0392138,8.991204 21.5712138,8.395204 C22.0562138,7.851204 22.3402138,8.387204 22.5642138,8.915204 C22.7542138,9.362204 22.5312138,9.348204 22.1242138,9.557204 C21.2972138,9.982204 20.4282138,10.573204 19.6902138,11.130204 C19.0002138,11.650204 18.3732138,12.270204 17.6232138,12.712204 C17.4822138,12.446204 17.1972138,11.915204 17.1012138,11.797204" id="Path" fill="#FFCC66"></path>
                    <path d="M20.1292138,7.712204 C20.5142138,7.306204 20.9242138,6.959204 21.2972138,6.568204 C21.5412138,6.312204 21.7102138,5.995204 21.9892138,5.741204 C22.1862138,5.563204 22.8712138,4.809204 23.1072138,4.782204 C23.5222138,4.734204 23.6982138,5.397204 23.7972138,5.652204 C23.9332138,5.998204 24.0892138,6.465204 24.2792138,6.786204 C24.5132138,7.179204 25.0782138,7.095204 24.8532138,7.626204 C24.7572138,7.854204 24.3972138,8.188204 24.2012138,8.341204 C24.0512138,8.458204 23.9182138,8.540204 23.7432138,8.597204 C23.3842138,8.715204 23.5582138,8.732204 23.3272138,8.498204 C22.8722138,8.038204 22.7112138,7.284204 22.1072138,6.958204 C21.8322138,7.170204 21.6882138,7.608204 21.4072138,7.858204 C21.1232138,8.111204 21.0062138,8.387204 20.5842138,8.323204 C20.4612138,8.105204 20.4742138,7.828204 20.2662138,7.684204 M18.7042138,8.124204 C19.6872138,7.487204 20.1542138,6.388204 20.9112138,5.524204 C21.6452138,6.029204 20.2942138,6.719204 19.9512138,7.034204 C19.5372138,7.414204 19.2392138,8.127204 18.7322138,8.344204 C18.7202138,8.302204 18.7222138,8.260204 18.7072138,8.219204 M21.5732138,5.005204 C21.7712138,4.781204 22.1392138,4.583204 22.3412138,4.335204 C22.4222138,4.467204 22.4752138,4.607204 22.5282138,4.752204 C22.2502138,4.974204 21.9312138,5.184204 21.6482138,5.392204 C21.5792138,5.254204 21.5652138,5.082204 21.5312138,4.932204 M23.0822138,3.670204 C23.8882138,3.216204 24.5672138,2.587204 25.3992138,2.270204 C26.1072138,2.000204 26.6492138,1.541204 26.8092138,2.540204 C26.0192138,2.775204 25.2712138,3.174204 24.4872138,3.523204 C23.9662138,3.755204 23.4392138,4.143204 22.8872138,4.209204 C22.9652138,4.023204 22.9682138,3.962204 22.8772138,3.931204 M24.0322138,4.644204 C24.1472138,5.088204 24.4622138,5.374204 24.5812138,5.788204 C25.3272138,5.258204 26.2452138,4.524204 27.1142138,4.317204 C27.0832138,4.053204 26.7712138,3.360204 26.5322138,3.285204 C26.3122138,3.218204 25.8242138,3.505204 25.6202138,3.605204 C25.1942138,3.815204 25.0772138,4.169204 24.6952138,4.419204 C24.4552138,4.577204 24.0652138,4.499204 24.0002138,4.856204 M24.7932138,6.355204 C25.3042138,5.867204 26.0582138,5.572204 26.6602138,5.208204 C27.1182138,4.931204 27.6862138,5.184204 28.0012138,4.751204 C28.1102138,5.079204 28.1752138,6.113204 27.9332138,6.401204 C27.6422138,6.750204 26.9412138,6.906204 26.5512138,7.165204 C26.2272138,7.380204 25.9572138,7.685204 25.6002138,7.850204 C25.6052138,7.526204 25.6202138,7.246204 25.4682138,6.951204 C25.3082138,6.641204 24.9382138,6.409204 24.8802138,6.063204 M35.7232138,4.442204 C35.7192138,4.696204 35.8432138,4.928204 35.9152138,5.157204 C35.5542138,5.082204 35.1772138,4.810204 34.7842138,4.715204 C34.4172138,4.626204 34.0572138,4.540204 33.6662138,4.540204 C33.0762138,4.539204 32.1412138,5.167204 31.5672138,4.844204 C31.3012138,4.694204 31.5112138,4.698204 31.4382138,4.408204 C31.3842138,4.191204 31.2642138,4.081204 31.1502138,3.900204 C30.9732138,3.622204 30.7612138,3.267204 30.6672138,2.954204 C30.5162138,2.448204 30.8772138,2.529204 31.2952138,2.663204 C31.6412138,2.773204 31.9342138,2.892204 32.2722138,3.016204 C32.8422138,3.226204 33.3952138,3.543204 33.9502138,3.700204 C34.2332138,3.780204 34.5622138,3.791204 34.8242138,3.913204 C35.0752138,4.031204 35.2882138,4.270204 35.5852138,4.374204 M27.1342138,3.192204 C27.5992138,3.046204 28.0962138,2.990204 28.5742138,2.822204 C28.8912138,2.711204 29.3092138,2.412204 29.6142138,2.624204 C29.8722138,2.802204 29.9472138,3.342204 30.0882138,3.623204 C30.2292138,3.901204 30.5082138,4.215204 30.5242138,4.518204 C29.8572138,4.400204 29.0642138,4.438204 28.4342138,4.690204 C28.3492138,3.863204 27.2092138,3.832204 27.0332138,3.103204" id="Shape" fill="#FFCC66"></path>
                </g>
            </g>
        </g>
    </g>
</svg>