<?xml version="1.0" encoding="UTF-8"?>
<svg width="904px" height="842px" viewBox="0 0 904 842" version="1.1" xmlns="http://www.w3.org/2000/svg" xmlns:xlink="http://www.w3.org/1999/xlink">
    <title>Artboard</title>
    <g id="Artboard" stroke="none" stroke-width="1" fill="none" fill-rule="evenodd">
        <g id="PBC_logo_BG_B" transform="translate(0.000000, 0.000000)" fill-rule="nonzero">
            <rect id="Rectangle" fill="#000000" x="0" y="0" width="904" height="841.9"></rect>
            <g id="Group" transform="translate(196.000000, 142.345646)" fill="#FFFFFF">
                <g transform="translate(138.261838, 504.137457)">
                    <path d="M40.0381622,1.11689657 L30.8381622,0.0168965651 C28.6381622,-0.183103435 26.5381622,1.41689657 26.3381622,3.51689657 L21.4381622,41.6168966 C21.2381622,43.7168966 22.9381622,45.7168966 25.0381622,45.9168966 L34.2381622,47.0168966 C36.4381622,47.3168966 38.4381622,45.8168966 38.8381622,43.7168966 L40.0381622,33.7168966 L33.9381622,32.9168966 L32.9381622,40.9168966 L27.8381622,40.2168966 L32.1381622,6.01689657 L37.2381622,6.71689657 L36.3381622,14.5168966 L42.3381622,15.3168966 L43.5381622,5.51689657 C43.8381622,3.41689657 42.2381622,1.41689657 40.0381622,1.11689657 Z" id="Path"></path>
                    <path d="M62.0381622,3.21689657 L52.8381622,2.41689657 C50.6381622,2.21689657 48.6381622,3.81689657 48.4381622,5.91689657 L44.9381622,44.2168966 C44.8381622,46.3168966 46.5381622,48.2168966 48.7381622,48.4168966 L58.0381622,49.2168966 C60.2381622,49.4168966 62.2381622,47.8168966 62.3381622,45.7168966 L65.8381622,7.51689657 C66.0381622,5.41689657 64.3381622,3.41689657 62.0381622,3.21689657 Z M56.3381622,43.2168966 L51.2381622,42.8168966 L54.3381622,8.51689657 L59.4381622,8.91689657 L56.3381622,43.2168966 Z" id="Shape"></path>
                    <polygon id="Path" points="77.8381622 5.21689657 71.7381622 4.71689657 68.4381622 50.9168966 81.7381622 51.9168966 82.1381622 45.9168966 74.8381622 45.4168966"></polygon>
                    <polygon id="Path" points="96.6381622 5.81689657 90.4381622 5.51689657 88.0381622 51.7168966 101.338162 52.5168966 101.738162 46.5168966 94.4381622 46.1168966"></polygon>
                    <polygon id="Path" points="105.938162 52.8168966 121.838162 53.0168966 121.938162 47.2168966 112.138162 46.9168966 112.538162 31.3168966 118.938162 31.4168966 119.138162 25.4168966 112.638162 25.3168966 112.838162 12.6168966 122.038162 12.7168966 122.138162 6.71689657 106.838162 6.51689657"></polygon>
                    <path d="M139.238162,38.9168966 L139.438162,46.9168966 L134.338162,47.0168966 L133.138162,12.7168966 L138.238162,12.5168966 L138.538162,20.4168966 L144.638162,20.2168966 L144.338162,10.3168966 C144.238162,8.21689657 142.438162,6.41689657 140.138162,6.41689657 L130.838162,6.71689657 C128.638162,6.81689657 126.838162,8.71689657 126.838162,10.9168966 L128.238162,49.2168966 C128.338162,51.3168966 130.438162,53.1168966 132.538162,53.0168966 L141.738162,52.7168966 C144.038162,52.7168966 145.838162,50.8168966 145.738162,48.7168966 L145.438162,38.6168966 L139.238162,38.9168966 Z" id="Path"></path>
                    <polygon id="Path" points="164.738162 5.51689657 147.738162 6.41689657 148.038162 12.3168966 153.538162 12.0168966 155.738162 52.3168966 161.838162 52.0168966 159.638162 11.7168966 165.138162 11.5168966"></polygon>
                    <polygon id="Path" points="168.438162 5.21689657 172.638162 51.3168966 178.638162 50.8168966 174.538162 4.71689657"></polygon>
                    <polygon id="Path" points="191.938162 40.3168966 183.838162 3.91689657 177.638162 4.51689657 188.338162 49.9168966 197.538162 49.0168966 198.338162 2.41689657 192.038162 3.11689657"></polygon>
                    <polygon id="Path" points="213.338162 41.1168966 211.138162 25.7168966 217.538162 24.8168966 216.738162 18.8168966 210.238162 19.7168966 208.438162 7.01689657 217.538162 5.81689657 216.738162 0.0168965651 201.538162 2.11689657 208.038162 47.8168966 223.738162 45.7168966 222.938162 39.9168966"></polygon>
                    <path d="M9.5381622,12.4168966 L5.4381622,11.8168966 C3.2381622,11.5168966 1.1381622,13.0168966 0.738162205,15.1168966 L0.0381622046,19.1168966 C-0.261837795,21.2168966 1.2381622,23.2168966 3.4381622,23.5168966 L7.5381622,24.2168966 C9.7381622,24.5168966 11.8381622,23.1168966 12.2381622,21.0168966 L12.8381622,17.0168966 C13.1381622,15.0168966 11.7381622,12.9168966 9.5381622,12.4168966 Z" id="Path"></path>
                    <path d="M245.038162,17.6168966 L244.238162,13.6168966 C243.938162,11.6168966 241.738162,10.1168966 239.438162,10.5168966 L235.438162,11.3168966 C233.238162,11.7168966 231.838162,13.8168966 232.138162,15.9168966 L232.938162,19.9168966 C233.438162,22.0168966 235.638162,23.4168966 237.738162,23.0168966 L241.838162,22.2168966 C243.938162,21.8168966 245.438162,19.7168966 245.038162,17.6168966 Z" id="Path"></path>
                </g>
                <path d="M494.1,365.354354 C482.7,395.454354 473.8,409.654354 468.1,410.354354 C465.5,410.654354 463.9,409.354354 463.9,405.654354 C463.9,396.954354 475.8,374.854354 475.8,358.854354 C475.8,344.654354 464.7,335.854354 456.1,328.354354 C467.8,307.554354 469.2,293.754354 458.7,293.054354 C432.1,291.254354 435.2,305.854354 435.2,313.754354 C435.2,322.454354 440.2,329.654354 442.7,334.954354 C440.2,347.154354 436.8,360.054354 432.1,372.654354 L432.1,372.854354 C422.4,398.754354 409.9,415.154354 394.9,416.954354 C383.1,418.354354 378.7,406.854354 378.7,391.854354 L378.7,388.054354 C409.2,379.754354 424.6,354.054354 424.6,336.254354 C424.6,324.754354 418.1,316.554354 405.3,318.054354 C377.1,321.254354 358,363.254354 357.1,396.854354 C350.9,411.554354 344.3,424.554354 339.3,425.054354 C335.9,425.454354 334.1,420.154354 334.1,409.754354 C334.1,400.454354 335.3,387.254354 338,369.754354 C341.1,359.154354 349.9,306.954354 352.3,297.254354 L352.3,297.254354 L435.9,287.254354 L441.2,274.454354 L355.1,285.254354 C355.4,283.754354 358.9,265.154354 360.2,245.354354 L341.9,247.454354 C335.9,273.354354 335.8,270.154354 332.3,287.754354 C332.3,287.754354 332.3,287.854354 332.3,288.054354 L313.1,290.454354 C313.1,290.354354 313.2,290.254354 313.2,290.154354 C317.6,269.654354 317.1,270.754354 318.3,250.054354 L300,252.154354 C294.1,278.154354 293.9,274.954354 290.6,292.454354 C290.5,292.654354 290.4,292.954354 290.3,293.254354 L187,306.154354 L183.6,317.154354 L288.4,304.654354 C283.3,327.154354 275.9,379.054354 273.9,405.154354 C265.7,424.454354 259.2,434.254354 253.8,434.854354 C251.4,435.054354 248.6,434.154354 248.6,426.954354 C248.6,406.454354 256.1,376.554354 265.2,336.554354 L243.3,339.054354 C240.2,351.854354 235.4,370.854354 231.5,392.554354 L229.9,400.954354 C224.4,423.354354 216.7,438.954354 212.6,439.554354 C210.3,439.754354 207.5,438.854354 207.5,431.654354 C207.5,421.654354 209.8,409.654354 212.6,395.254354 C219.1,362.554354 224.2,341.254354 224.2,341.254354 L202.3,343.754354 C202.3,343.754354 197.2,364.054354 190.7,397.254354 C189.8,401.954354 189,406.654354 188.4,411.254354 C186.9,390.954354 175.1,372.854354 152.1,366.354354 C170.2,355.054354 178.7,336.854354 178.7,319.754354 C178.7,285.154354 146.1,271.854354 109.5,276.054354 C50.4,282.854354 23.1,325.754354 23.1,360.954354 C23.1,388.554354 40.3,411.554354 72.1,407.854354 C76.4,407.354354 80.5,406.354354 84.2,404.554354 L81.1,388.654354 C78.6,389.554354 75.9,390.154354 72.9,390.554354 C51,393.054354 39,376.354354 39,355.654354 C39,327.254354 61,291.054354 108.3,285.654354 C134.9,282.554354 160.9,294.254354 160.9,323.654354 C160.9,338.954354 154,355.054354 139,363.854354 C133.9,363.554354 126.5,365.154354 120.5,365.754354 C124.4,336.954354 120.5,320.954354 139.4,296.854354 L127,289.654354 C107.7,307.154354 107.9,342.254354 102.9,378.054354 C96.3,424.654354 88.2,457.754354 74.5,472.554354 C68.8,470.354354 62,469.454354 55.4,470.254354 C52.7,470.454354 50.2,471.054354 47.8,471.754354 C47.8,471.754354 39,474.254354 37.1,483.254354 C33.9,497.654354 44.5,496.554354 44.5,496.554354 C54.5,495.354354 64.7,491.654354 74.5,484.354354 C83.5,486.954354 97,489.554354 119.9,486.854354 C157.5,482.554354 180.3,457.554354 186.7,431.254354 C186.7,431.454354 186.7,431.754354 186.7,431.954354 C186.7,448.754354 191.4,460.154354 205,458.454354 C215,457.354354 222.5,448.254354 228.2,435.354354 C229.8,447.454354 234.9,455.054354 246.3,453.754354 C258.8,452.354354 267,441.254354 274,426.354354 C275.4,441.254354 280.2,449.954354 289.6,448.854354 C300.6,447.554354 307.9,439.154354 315.8,421.554354 C317.2,436.454354 321.9,445.054354 331.3,443.954354 C342.9,442.654354 350.3,433.554354 358.7,414.354354 C362.2,429.954354 371.7,440.554354 388.8,438.554354 C414,435.654354 427,408.254354 439.8,373.954354 L439.8,373.754354 L449.7,347.254354 C452.5,352.054354 454.8,357.654354 454.8,365.054354 C454.8,377.854354 443,396.954354 443,413.254354 C443,424.454354 447.7,431.454354 459.7,429.954354 C480.8,427.554354 489.8,397.554354 501.201256,367.754354 L501.201256,367.554354 C501.3,366.254354 495.4,365.254354 494.1,365.354354 Z M403.3,333.654354 C405.9,333.454354 407.4,335.754354 407.4,339.454354 C407.4,348.654354 398.9,366.854354 379.6,378.354354 C382.6,357.354354 392.7,334.854354 403.3,333.654354 Z M120,477.654354 C104.2,479.454354 93.3,478.054354 84.3,475.854354 C100.4,458.554354 112.7,428.554354 119.3,377.754354 C126.6,376.754354 134.7,374.554354 140.5,372.254354 C160.3,378.254354 169.8,397.154354 169.8,417.154354 C169.8,444.354354 152.6,473.954354 120,477.654354 Z M316,400.254354 C309.6,415.554354 302.7,429.254354 297.6,429.854354 C294.3,430.154354 292.5,424.854354 292.5,414.454354 C292.5,405.154354 293.7,392.054354 296.4,374.554354 C299.4,364.054354 308.2,312.454354 310.6,302.154354 L330.5,299.754354 C325.4,321.954354 318.1,374.054354 316,400.254354 Z" id="Shape"></path>
                <g>
                    <path d="M199.4,70.754354 C199.4,29.954354 171.1,-6.74564601 104.4,1.05435399 C33,9.35435399 -2.84217094e-14,62.254354 -2.84217094e-14,105.854354 C-2.84217094e-14,141.154354 21.5,170.254354 61.4,165.554354 C66.8,165.054354 71.9,163.654354 76.5,161.454354 L72.5,141.654354 C69.4,142.754354 66,143.654354 62.3,143.954354 C34.8,147.154354 20,125.554354 20,98.854354 C20,63.554354 45.8,19.554354 101.5,13.154354 C155.6,6.95435399 177.3,38.554354 177.3,73.154354 C177.3,108.454354 155.1,147.254354 122,155.354354 C127.9,111.954354 134.4,58.354354 150.6,28.654354 L128.8,21.354354 C88.4,98.054354 116.6,253.954354 54.1,261.154354 C40.5,262.754354 28.5,255.654354 28.5,240.354354 C28.5,229.454354 36.4,216.754354 49.2,213.854354 L49.2,194.554354 C24.5,198.254354 10.9,218.754354 10.9,237.854354 C10.9,261.954354 26.5,275.954354 54.8,272.654354 C99.4,267.554354 112.3,220.754354 120,167.954354 C168.9,160.154354 199.4,113.254354 199.4,70.754354 Z" id="Path"></path>
                    <path d="M468.6,86.954354 L507.1,82.754354 L512.1,70.854354 L471.3,75.554354 L471.5,74.754354 C471.5,74.754354 475,56.554354 476.3,37.354354 L459.2,39.354354 C453.6,63.454354 453.4,60.554354 450.3,76.954354 C450.3,76.954354 450.3,77.354354 450.3,77.954354 L203.5,106.454354 L200.2,116.554354 L448.2,89.254354 C444,108.254354 438.3,147.454354 435.7,172.954354 C425.7,198.954354 418.1,211.954354 412.1,212.654354 C409.9,212.854354 407.3,211.954354 407.3,205.254354 C407.3,186.054354 414.2,158.354354 422.6,120.954354 L402.3,123.254354 C399.3,135.254354 394.8,153.054354 391.2,173.254354 L389.8,181.054354 C384.7,201.854354 377.5,216.554354 373.7,216.954354 C371.5,217.154354 368.9,216.254354 368.9,209.554354 C368.9,200.154354 371.1,189.054354 373.7,175.654354 C379.7,145.154354 384.5,125.254354 384.5,125.254354 L364,127.654354 C364,127.654354 359.2,146.654354 353.2,177.654354 C351.9,184.554354 350.8,191.454354 350.1,197.854354 C343.2,213.254354 337.6,221.054354 333,221.554354 C330.8,221.754354 328.2,220.954354 328.2,214.154354 C328.2,195.054354 343.9,165.554354 343.9,143.854354 C343.9,132.754354 338.3,127.954354 329.9,128.954354 C319.8,130.054354 310.2,138.254354 302.5,150.254354 L305.1,134.354354 L284.4,136.654354 C281.6,154.754354 277.5,178.754354 272.7,205.654354 C272.4,206.454354 272.1,207.254354 271.8,208.154354 C264.2,223.754354 258.2,230.454354 256.3,230.754354 C255,230.854354 254.4,229.354354 254.4,225.754354 C254.4,224.054354 254.4,222.254354 254.9,219.554354 C258.3,196.154354 262.8,170.454354 270,138.654354 L253,140.554354 L250.4,154.054354 C248.7,143.654354 243.7,139.154354 234.7,140.154354 C213.7,142.554354 196.4,185.554354 193.8,218.054354 C186.4,230.754354 177.9,238.454354 168.2,239.654354 C157.2,240.854354 153.1,230.154354 153.1,216.254354 L153.1,212.754354 C181.4,205.154354 195.7,181.154354 195.7,164.754354 C195.7,154.054354 189.8,146.354354 177.8,147.754354 C151,150.854354 133,191.354354 133,223.054354 C133,244.854354 141.6,262.354354 162.6,260.054354 C176.2,258.454354 185.9,249.154354 194,235.454354 C195.6,247.454354 200.5,255.054354 210.1,253.954354 C224,252.354354 232.4,238.954354 237.9,224.154354 L237.9,226.654354 C237.9,242.754354 242.2,249.054354 250,248.154354 C254.8,247.554354 259.8,243.954354 265,236.654354 C264.2,241.854354 263.8,245.254354 263.8,245.254354 L284.7,242.954354 L294.4,193.554354 C302.4,159.754354 312.9,147.654354 318.9,146.854354 C321.5,146.654354 322.8,148.554354 322.8,151.154354 C322.8,167.954354 307.1,195.554354 307.1,220.754354 C307.1,234.954354 315.1,240.454354 323.5,239.554354 C334.5,238.254354 342.7,228.854354 349.7,215.954354 C350.8,228.054354 355.5,235.854354 366.5,234.654354 C375.9,233.554354 382.9,225.054354 388.2,213.054354 C389.6,224.254354 394.4,231.454354 405,230.154354 C418.9,228.554354 427.1,214.254354 434.5,196.154354 C435.1,213.554354 439.5,223.854354 449.4,222.754354 C465,220.854354 472.5,203.654354 486.6,164.754354 C486.6,163.654354 481.4,162.154354 479.9,162.354354 C472.7,181.054354 463.3,204.154354 456.8,204.754354 C453.7,205.154354 452,200.254354 452,190.454354 C452,181.854354 453.1,169.654354 455.6,153.254354 C458.3,143.954354 466.1,98.454354 468.6,86.954354 Z M175.9,162.354354 C178.3,162.154354 179.7,164.254354 179.7,167.754354 C179.7,176.354354 171.9,193.354354 153.9,203.854354 C156.7,184.454354 166,163.654354 175.9,162.354354 Z M218.6,233.254354 C215,233.654354 213.5,228.954354 213.5,221.654354 C213.5,200.454354 225.8,158.054354 235.9,156.854354 C241.2,156.254354 243.4,162.054354 243.4,170.754354 C243.4,192.354354 229.6,232.054354 218.6,233.254354 Z" id="Shape"></path>
                </g>
                <g transform="translate(229.100000, 20.254354)" id="Path">
                    <polygon points="16.2 0.8 0 2.1 0.5 7.7 5.6 7.3 9.2 45.5 15 45.1 11.6 6.8 16.7 6.4"></polygon>
                    <polygon points="33.1 0.2 33.9 20.5 28.9 20.6 28.3 0.3 22.5 0.6 24.1 44.5 29.9 44.3 29.2 26.3 34.2 26.1 34.7 44.2 40.7 44 39.1 0"></polygon>
                    <polygon points="62.7 6.2 62.8 0.6 48.3 0.1 46.7 44.1 61.7 44.5 61.9 38.9 52.7 38.6 53.3 23.7 59.4 23.9 59.6 18.3 53.5 18.1 53.9 6"></polygon>
                </g>
            </g>
        </g>
    </g>
</svg>